<mxfile host="app.diagrams.net" agent="Mozilla/5.0 (Windows NT 10.0; Win64; x64) AppleWebKit/537.36 (KHTML, like Gecko) Chrome/131.0.0.0 Safari/537.36" version="26.1.1">
  <diagram name="Page-1" id="dysJS4AnKJ9Yt0XsmG1_">
    <mxGraphModel dx="794" dy="454" grid="1" gridSize="10" guides="1" tooltips="1" connect="1" arrows="1" fold="1" page="1" pageScale="1" pageWidth="850" pageHeight="1100" math="0" shadow="0">
      <root>
        <mxCell id="0" />
        <mxCell id="1" parent="0" />
        <mxCell id="B9D5F5vZFoDY02jjwxrt-1" value="" style="shape=image;verticalLabelPosition=bottom;labelBackgroundColor=default;verticalAlign=top;aspect=fixed;imageAspect=0;image=data:image/jpeg,/9j/4AAQSkZJRgABAQEAYABgAAD/2wBDAAgGBgcGBQgHBwcJCQgKDBQNDAsLDBkSEw8UHRofHh0aHBwgJC4nICIsIxwcKDcpLDAxNDQ0Hyc5PTgyPC4zNDL/2wBDAQkJCQwLDBgNDRgyIRwhMjIyMjIyMjIyMjIyMjIyMjIyMjIyMjIyMjIyMjIyMjIyMjIyMjIyMjIyMjIyMjIyMjL/wAARCAHZAyADASIAAhEBAxEB/8QAHwAAAQUBAQEBAQEAAAAAAAAAAAECAwQFBgcICQoL/8QAtRAAAgEDAwIEAwUFBAQAAAF9AQIDAAQRBRIhMUEGE1FhByJxFDKBkaEII0KxwRVS0fAkM2JyggkKFhcYGRolJicoKSo0NTY3ODk6Q0RFRkdISUpTVFVWV1hZWmNkZWZnaGlqc3R1dnd4eXqDhIWGh4iJipKTlJWWl5iZmqKjpKWmp6ipqrKztLW2t7i5usLDxMXGx8jJytLT1NXW19jZ2uHi4+Tl5ufo6erx8vP09fb3+Pn6/8QAHwEAAwEBAQEBAQEBAQAAAAAAAAECAwQFBgcICQoL/8QAtREAAgECBAQDBAcFBAQAAQJ3AAECAxEEBSExBhJBUQdhcRMiMoEIFEKRobHBCSMzUvAVYnLRChYkNOEl8RcYGRomJygpKjU2Nzg5OkNERUZHSElKU1RVVldYWVpjZGVmZ2hpanN0dXZ3eHl6goOEhYaHiImKkpOUlZaXmJmaoqOkpaanqKmqsrO0tba3uLm6wsPExcbHyMnK0tPU1dbX2Nna4uPk5ebn6Onq8vP09fb3+Pn6/9oADAMBAAIRAxEAPwD3+iiigAooooAKKKKACiiigAooooAKKKKACiiigAooooAKKKKACiiigAooooAKKKKACiiigAooooAKKKKACiiigAooooAKKKKACiiigAooooAKKKKACiiigAooooAKKKKACiiigAooooAKKKKACiiigAooooAKKKKACiiigAooooAKKKKACiiigAooooAKKKKACiiigAooooAKKKKACiiigAooooAKKKKACiiigAooooAKKKKACkbhSfalpG+430oArwW8DW8RMMZJQE/IPSoBdaW1+bEGA3I/g2fj6dasxPssUcgnbGDgDk8V51DqpXWl1Y6TdfaWmJZPKfYEIxkDH3veuihR9on5fmcOMxToOCXV677ddup6P9mt/wDnhF/3wKPs1v8A88Iv++BUvUZqvcreMU+yyQoB94SIWz9MEYrnO4f9mt/+eEX/AHwKPs1v/wA8Iv8AvgVLRQBF9mt/+eEX/fAo+zW//PCL/vgVLRQAUUUUAFFFFABRRRQAUUUUAFFFFABRRRQAUUUUAFFFFABRRRQAUUUUAFFFFABRRRQAUUUUAFFFFABRRRQAUUUUAFFFFABRRRQAUUUUAFFFFABRRRQAUUUUAFFFJvXdt3Dd6Z5oAWimJLHI7okiMyHDANkr9afQAUUUUAFFFFABRRRQAUUUUAFFFFABRRRQAUUUUAFFFFABRRRQAUUUUAFFFFABRRRQAUUUUAFFFFABRRRQAUUUUAFFFFABRRRQAUUUUAFFFFABRRRQAUjfcb6UtI33G+lAEdt/x6w/7g/lVePVrKXUXsEnBuEzlcHt1GfWpVkMOmiUIzlIdwVRy2B0Fef2V9dRa1HqR0O7+1Synzj5L7QrYHyjsevNdFGiqik30OHF4qVGUFHq9dHt/mekUUVXniunkQwXCxKPvKY92f14rnO4sUUUUAFFFFABRRRQAUUUUAFFFFABRRRQAUUUUAFFFFABRRRQAUUUUAFFFFABRRRQAUUUUAFFFFABRRRQAUUUUAFFFFABRRRQAUUUUAFFFFABRRRQAUUUUARXDMsXyttJZRnHTJApPKk/5+ZP++V/wpbj/Vr/ANdE/wDQhUtAEPlSf8/Mn/fK/wCFHlSf8/Mn/fK/4VNRQBWMMqWM0b3crOwfEu0bkznGAAOnb6Vwtt4S1W7tYmF4sccnz5bdleQwOM5zlpOM8ZUZ4r0OiplCMtzqw+Mq4e6hbXyuZg0n7Md+nvBaSuAsji3U7wOg4x6n86aLPWQ5P9sQlc8A2YzjPrurVoqm7nKFFFFABRRRQAUUUUAFFFFABRRRQAUUUUAFFFFABRRRQAUUUUAFFFFABRRRQAUUUUAFFFFABRRRQAUUUUAFFJketVoYo7hPOlRZGYnG4ZAGeMUAWqKi+zW//PCL/vgUfZrf/nhF/wB8CgCWiovs1v8A88Iv++BR9mt/+eEX/fAoAloqL7Nb/wDPCL/vgVFNFHAhmiRUdcfdGMj0NAFqikyPWjcvqPzoAWim70/vL+dHmJ/fX86AHUjfcb6U3zov+eif99CmSXECROzTRqoUkkuAAKAFtv8Aj1h/3B/KqS65Ytqx00O32gHHTjOM4z61biYrYxsq7yIgQB34rgYm11dTXUjoEv2wy7nk2jlCMbcZx+PWuihSjNPmf49ThxmInRcORXu9dL6f5notFHaq1zZrdMjNNPHt6eVIVz9cVzncWaKKKACiiigAooooAKKKKACiiigAooooAKKKKACiiigAooooAKKKKACiiigAooooAKKKKACiiigAooooAKKKKACiiigAooooAKKKKACiiigAooooAKKKKAIrj/Vr/wBdE/8AQhUtQXR2wg4Jw6cDr94UfaP+mE3/AHzQBPRUH2j/AKYTf980faP+mE3/AHzQBPRUH2j/AKYTf980G5wM+RN/3zQBPUF0A0SqRkGRcj8RWfqWvJptla3L2N3IbjpEqgOnGTuBIxWHJ49SS4iS30+7VVkCz+bF2IP3cHrnHPQjOKAOu+y2/wDzwj/75FH2W3/54R/98CuVHxC08qpFle5ZVbGxe+e+eoxjHftmuol3NPHGJGQFWJ247Y/xoAX7Lb/88Iv++BR9lt/+eEX/AHwKPIb/AJ+JfzH+FHkN/wA/Ev5j/CgA+yW3/PvF/wB8Cj7Jbf8APvF/3wKPIb/n4l/Mf4UeQ3/PxL+Y/wAKAD7Jbf8APvF/3wKPslt/z7xf98CjyG/5+JfzH+FHkN/z8S/mP8KAD7Jbf8+8X/fAo+x23/PvF/3wKPIb/n4l/Mf4UeQ3/PxL+Y/woAT7Ha/8+0P/AHwKPsdr/wA+0P8A3wKXyG/5+JfzH+FHkN/z8S/mP8KAE+x2v/PtD/3wKPsdr/z7Q/8AfsUvkN/z8S/mP8KPIb/n4l/Mf4UAJ9jtf+faH/v2KZLbWkUTObWI7R0EY5qTyG/5+JfzH+FI1tvG1ppSp6jI5/SgCHyIv+gan/fKUeRF/wBAxPySrtFAFHyIv+gYn5JR5EX/AEDE/JKvVWjj815SzycOQMOQAMD0oAi8iL/oFp+SUnkRf9AtPySrP2ZP78v/AH9b/Gj7Mn9+X/v63+NAFbyIv+gWn5JVqMxw24LIsCDqpIAX8uKT7Mn9+X/v63+Nc3rNm2o+J7DTZppEsvIaVRvOZHB+YZ9QMfQE1dOCk7NmVao6cbpXe33nVdRkUVzWmT6dpdzNFbeYImkCAFwQevzD8RitIa7YnozkA4J2HArneIo30kdMcPXt70LP7y9cKGiw0AnGfuHH9aq+TH/0CU/KP/GnW99BqLvHCXKoMlgSvOan+zJ/fl/7+t/jVxkpK8SZRlF2kVfJj/6BKflH/jR5Mf8A0CU/KP8Axq19mT+/L/39b/Gj7Mn9+X/v63+NUSUZoU8lsaIsueCmI+QeD1NW7CNIbKKKJFSNBtRVGAADgAD0p/2ZP78v/f1v8abYlWsoyjbl5wc5zz60AYV1qE8Zn2akSVufLCDYDtxnv6dOfSopNWvhG7R3Ak3QoxYKB5TYyf0B61XOotDdTuZFnCyXInieBWWAK5EbcAHngcnkEnjBNCa/dbZpJY7OPzII9kRhJ3P5joSTuA2/KO+Bkc+uvPHsRyvuddAwaCMiQS/KPnGPm9+Kkrjo9V1YGe/jiMdnGsZaJwvlpvijPAA3fKzliemAR16Sv4ru7dUeSyWaM7mMsAYq0aMys69e5jwO4Y9cVkWdZUF4A1nKpAIIwQe9c8viHUnmuIBaW6zROkRVn5Vi6JuIByVO4kHA4A5OeN+7TfYusmCdozjI5oAcLK1HS2hH/bMUptLY9beI/wDABSfZIf7p/wC+j/jR9kh/un/vo/40AH2K1/59of8Av2KcLW3AwIIv++BUctrCInIVshTj5z/jU0RJhQnklRmgBn2S2/594v8AvgU2SztWidGtoWVlIKmMEEVYpG+430oAjtv+PWHH9xf5VT/tyx/tb+zfMP2jp04zjOM+uKtwErZxkAkiMHA78V5+JNb/ALTGpnw/N9t83cX8vjZjG3GcZ9+tdFClGd+b8+pw4zETo8vIr3eul9OvzPRqKQHKg4IyOhqC6t3uNuy5lg25z5eOfzFc53FiikUEKASSQMZPeloAKKKKACiiigAooooAKKKKACiiigAooooAKKKKACiiigAooooAKKKKACiiigAooooAKKKKACiiigAooooAKKKKACikpaACiiuan1+603UJbW5SKZVb/WAlQARkZ6heD3x9eaTaW5cKcpu0TpaKr2V2t7bLMI3jJ4Kv1B+o4P4VYpktW0CiimPNFEyrJIiMxwoZgM/SgTdh9FJkZxnmloAiuP8AVr/10T/0IVLUN0SIQQpY704Hf5hR50v/AD7Sf99L/jQBNRUHnS/8+sn/AH0v+NHnS/8APrJ/30v+NAE9FQefN/z6Sf8AfS/41XvdUXTrKW7ureZYoxk7cMTzjAAPvQ3bUcYuTsty/RXLXvjPTTYxtaX0cU8oQjdEZSiseuFIHA5+9x+lVLXxZZ2N1M11rU+oxsgePZbBAn3uMDlj8vp3HrUOpHudEcHXd/df3M7SoX/4+4v9xv6VWsdYs9Tikewk+0iNtr7RjB+pxUkkrJIJ5YmjiiRy7Eg4HB7H2q009jnlFxdpKzLdFczpPjWz1iZlgtbhI2ZkhkkKqJmAyVUE5z0/PnFadnrtjextKsnlxAhd8pCguRkoMn7w7jseOxpyi4uzIhOM1eLLkqiS4jRi23YxwGI5yvpS/Zo/WT/v43+NQTalp8N1Ekt5CszN5SqZB1I3YPpwtWJLmCFS0s8UajglnAApFCfZo/WT/v43+NH2aP1k/wC/jf40w6hZDreW46f8tV79O9SGY8GOMyKf4lYY/nQAn2aP1k/7+N/jR9mj9ZP+/jf40edL/wA+0n/fS/40edL/AM+0n/fS/wCNAB9mj9ZP+/jf40fZo/WT/v43+NHnS/8APtJ/30v+NHnS/wDPtJ/30v8AjQAfZo/WT/v43+NH2aP1k/7+N/jR50v/AD7Sf99L/jSNPIqljbSYAyfmX/GgBGit1OGkYH0Mrf40my2/56n/AL/H/GiFY5ZJnKKcsCMj/ZFTeTF/zzT/AL5FAEOy2/56n/v8f8aNlt/z1P8A3+P+NTeTF/zzT/vkUeTF/wA80/75FAEOy2/56n/v8f8AGnxmCJdqOoBOTl880/yYv+eaf98ijyYv+eaf98igA86L/non/fQo86L/AJ6J/wB9CjyYv+eaf98ijyYv+eaf98igCr/o8t1MZGRsBQMt04qSWytLqGNHiV1RtyEHlT6gjkH6UkcUX2qf92n8P8I9KsgBRhQAPQUJtbCaTVmM8iHAHlIcDAyo6UCCEDAijA/3RUlFLlRXMyF4LcR7WRFQnntUX2axP8Mf/fVWmVWGGAI9CKqy20El0ivEhUITjHuKewr3D7LZf3U/76o+yWP91P8Avql/s2y/59o/ypP7Msf+fWP8qAGS6dp08LxSRoyOMMN55H51NZsvk+WCNyEggHpzxTP7Lsf+fWL/AL5qCTw/pEzl5NOt2coULbBnaeoz1oA0qKrR6fZxRJGlrEERQqjYOAKd9jtv+feL/vgUAT0VB9jtv+feL/vgUfY7b/n3i/74FAE9Vr0K8BhIDNIQAp78077Hbf8APvF/3wKfHBFEcxxIhPXaoFACfZYP+eMf/fIo+ywf88Y/++RUtFAFea2g8iT9zH90/wAI9KSG2g8iP9zH90fwj0qab/USf7p/lRD/AKiP/dH8qAG/ZYP+eMf/AHyKiEaR3ThFCgxcgDHc1aqu3/H2/wD1y/qaAH23/HrD/uD+VZX/AAkcH/CQ/wBkeU/mZ27898Z6envWpBu+xx7QC3ljAP0riBpXi0XAufKtftPm+Z53mjdj+7nH3fauihCEr87OHGVa0OX2Sb11sr6dvmd7RSDO0ZGDjmobmzt7wKLiPeFzjkjGfpXOdxPRTY40hiSKMYRFCqPQCnUAFFFFABRRRQAUUUUAFFFFABRRRQAUUUUAFFFFABRRRQAUUUUAFFFFABRRXlviH4uPYancWWm6ar+RIY2luGIyQcHCjtn3rOrVhSV5M7cDl+Ix03ChG9t+h6lRXj+n/Ge6Fwo1HSoWhJ+ZrdiGA+hzn8xXrsMqzwRzJnbIoZcjBwRnpSpV4VfhZeOyzE4FpV42vtrcfRRRWp54UUUUAFFFFAEMryedHHGUXcrEllJ6Y9x600rd9poP+/R/+Kok/wCQhb/9c3/mtWKAGRiQL+9ZWb1VcD+Zpss8NuoaeVI1JwC7AAn05qWsnX9OuNRs4o7VkWZJQ6mQ/IOCMkY+bGcgccgUAW5b+HaVgmilmPREcFiO+B3wKpabaW8MhJhzOzEvLICXY9Scn+VZWn6FqMEl1mNYYpYXhCx3J3K2B+8VipPzHPXp75NTW2neKI1ffqdsuxf3MSL8mRjaCSC2OoPOe49KBqTWiOnorE0my1uC7d9T1NbiIZCIiKuTngnj07Z65raoELXjev79d8Q3l1FdxNAsnlxtI+3AAHQHtmvZK841/wCHcimS50dzKWck2zkDAP8AdP8AQ16GXVadObcnZvY8fOKNWrSSpxulq11Oahi1OzuftsWpolxz+88/JI6Hk9fTFdt4K1vU7m/n07UZ1udsPnJKCCV5xtJH1rK0n4bXE0cUup3PkfN80CAMdv8AvZwD+ddxo+gadoUTpYw7DJy7s25m9Oa6cbiaEoOK95+n6nJluDxUKim7xj2b3+X+ZcuywgG0At5iYyf9oUubn+5F/wB9n/Cm3jBYFLEACWPJP++Kf9og/wCe0f8A30K8Y+jEzc/3Iv8Avs/4UZuf7kX/AH2f8KX7RB/z2j/76FH2iD/ntH/30KAEzc/3Iv8Avs/4UyWKSeMxzQW8iHqrnIP4EVJ9og/57R/99Cj7RB/z2j/76FAJ2KosIwSRYWQJ6nb+H92j7BHjH2CyxjH3e3/fNWvtEH/PaP8A76FH2iD/AJ7R/wDfQpWRXPLuRxRPApWG3t41JyQhwM/gKWSOWeJ4pVURupVijncMjtxT/tEH/PaP/voVz2t+I9WsNY+yaZ4fl1KGG3W4uZElCNtZiAsYIw7fKSRkcY9apK+xLfcih8GFdZi1KbUDK1shFrGIQqoxz87AH5iSST0yalbwmyK6QXilJInjZbiHzcNJjzHHI5YgH0yT61b07xVpeqWMd3bSOFaf7PJHMvlSQyYyVdWwQQB/hmmJ4y0F5JtuowGCKNXa43jy8sxUKD3Pynj0xVS55bkQhCHw9RkHhaNYobaeSGa2hLYBgxI4ZWB3Nnk/N1x2qJPCIjeOcXrTXEbLIGuI96tJzvcrkcsNv02jFX5/FOg2qxNPrFkglj82MmZfnTsR69/yPpUw1/SDew2Q1O0NzMoeKMSglwRkEfUcj1qbMu6MX/hCkFvtFzGZDJI7HyCqkOACMKw6Y45xya6NLOBIo4wnCKFGCR0qHT9Z0zVWlXT7+3umiOJBFIG2/l24PPtV6lsBD9kh/uH/AL6NH2SH+4f++jU1FAEP2SH+4f8Avo0fZIf7h/76NTUUAVbi3iS3lZVIYISDuPHFTy/6mT/dNNuv+PSb/cP8qdL/AKmT/dNAENn92T6r/wCgLVmq1n92T6r/AOgLVmgAooooAKKKKACiiigCCL/j6n/4D/Kp6gi/4+p/+A/yqegAooooAKhP/H6v/XM/zFTVCf8Aj9X/AK5n+YoAmooooAKKKKACiiigAooooAKKKKACiiigBk3+ok/3T/KiH/UR/wC6P5UTf6iT/dP8qIf9RH/uj+VAD6rt/wAfb/8AXL+pqxVdv+Pt/wDrl/U0APtv+PWH/cH8q5t9Yvx4qEKyR/2aJBEXyNoO3pnruz2rpLcZtIhnGYx0+lcofAllnyjqt5ljv27kzn16V0UHTV+f8jhxsa8uX2PR33t8vRnYVDcvcRw7raFZpM/dZ9g/PBqVF2oq5JwMZPU0tc53CLkqCwwccjPSloooAKKKKACiiigAooooAKKKKACiiigAooooAKKKKACiiigAooooAKKKiuLmCzgae5mjhhXG6SRgqjJwMk+9AEteD6r5Vxqt5HKNLumjncGLUWa3uE+Y8bwVDj0JJ49K9pOuaSqhm1SyVT0LTqAenv7j8xXmur+Hmlv5Tp2t6DqEDuWS31BkZ4txztVhk4545HauXFQlJKyue9kOJpUKk/aS5b2t0/H/AIK9TlQsFn86R6FYHs8MzXk2f9hdzAH0Jx9RXuliboadagRjAhT/AF0h3/dH3uOvrXl2l+F728mwmqeHNPjAPmSadtkmC98MeV69civSLfXvD9taxQJren+XGgjUtdoSQBjrnmpwtOUb3VjbP8XRrqCpz5mr36/j/wAF/I0d11/zzh/7+H/Cjddf884f++z/AIVUHiDRmZVXVrFmboBcIc/rWlXYfNkObr/nnD/32f8ACjNz/wA84f8Avs/4VNRQBDm5/uRf99n/AAp0MhliVyME5yAc1JUNp/x7r9T/ADNADZP+P+3P+w//ALLVioJMfbIf91/6VPQAUUUUAFFFFABRRRQBHNCk6bHztzng4qt/ZkHUtMTnr5h/L6cVdooAz4rKF3JjaVRGWRhu68VJ/ZsHHzS4Bzt38VJa9Z/+up/pVigCtfkC3UsQB5sec/74pxmtR1lhH/AhUWpqHtUVhlTPECP+BrT/ALBa/wDPIfmaACS6sooTM8sIjDBS2QQCTgD8zUF3qVtaxTssMk7QKSyRR5zgZIB6Egc4zUz6dauoVosqCTtycHII/kTUFxpIkgmjguri3aVCpZXJwSMFsHvjv+PWqjy3VyJ83K+ULTVtNvoRLbyq0ZYqGKFQSF3HBI5479Kd/aWn7AzyrGpYKDIhTk5I6jocHmm2eh2VjbrbxLIYVJKo8hYLldpAz0BHb1JNSpplso+YPLyD+9ctwAQBz2G4/nTfLfTYI8/KubcmgkguoI54CrxSDcrAcEVJsT+6v5VCllBGioqttUYHzn/GuZl8W6ZHZ3dyLO7dYNVXSkVW5mmLKuV+b7oLd/7pqCzrNif3V/Kud1zR/EN5qgl0jX1sLSaAQzo8HmNHgk74snAYg4OQegpIfFXhW4ku0j1WH/RI2lmZndUCKcMwY8MAeCVJ5rOi+IHhWbUpLVZ5/LSzW8FwY5NjIS3GMbgQFzyBnIxmmnYC+PAulDRv7N8y6dZLg3FxPLKXluHKlSXY9yD2xjAxTf8AhDpTNHeya1cPqcG1ba6MMYEaKGG3YBg5Dtk9emMYq7oetaD4kink0i7N0lu/lykeYu1sZwd2Oa1fskP91v8Avs/40+eQrIwLLwXZ2Uqyi6nkl+0x3LswX5pF3knAGBkyMcDpxiq0PgG2htVsBqFydMZkkmtSifvXQAA78blHyrkA9uMZNdR9kh/ut/32f8aPskP91v8Avtv8aOeQWRk6N4c/sq7W5mv5ruSK3FpBvjRPLhBBx8oG48Dk+nAHOd2oPskP91v++2/xqOexSS2mjjZkd42RX3E7SRjPWk23uMt0VwcXw/1CFmdfEVwT5TbFIJVJtsYjkHzdjHkr0Oe3OUPw/vjOrJr0sbGPDXSh/PVjGVYKd20IzsZMYznv0IQHdu6xozscKoyT6CqNnq8d3NHH9nuIfNQyRNKoAkUY6YJ9R1xXNp4N1ESaVJHqNtZrp8hkFtaxP5UxY4bducnlMj6sTXT2ek2diytBEQyqVUs7NgHqBk8dB09Kl811YiXPdW2LF1/x6Tf7h/lTpf8AUyf7ppt1/wAek3+4f5U6X/Uv/umqLIbP7sn1X/0Bas1Ws/uv9V/9BWrNABRRRQAUUUUAFFFFAEEX/H1P/wAB/lU9QR/8fU//AAH+VT0AFFFFABUJ/wCP1f8Armf5ipqhP/H4v/XM/wAxQBNRRRQAUUVXAa4dyXdERtoCnGcdzQBYoqH7OP8AnpL/AN/DR9nH/PSX/v4aAJqKh+zj/npL/wB/DWdPcXcc0ix6ZeyopIDrcIN30BbNAGvRVaKEvCjuZ42ZQShk5U+nFP8As4/56S/9/DQBNRUP2cf89Jf+/hpDbf3ZpVI6Hdn+dAEk3+ok/wB0/wAqIf8AUR/7o/lUe9pLRywAYBgceoyKkh/1Ef8Auj+VAD6rt/x9v/1y/qasVXb/AI+3/wCuX9TQA+2/49Yf9wfyrz651rT38S/2t9skEUUyr5QHzMACNwP93jp/jXoNt/x6w/7g/lWFeyeHbLU4rGbTrXzZcZIt0wMnAzXThpWb0buunbqedmNPnjFuSik+vfodCrK6K6kFWGQR3FQ3MMs0e2K4aBv7yqD/ADqYAKoVQAAMADtS1zHojIUeOFEkkMjAYLkAFvfin0UUAFFFFABRRRQAUUUUAFFFFABRRRQAUUUUAFRXVwlpaTXMgYpDG0jBRkkAZOB3NS1R1oE6FqAUSlvs0mBEcPnafu+/p70m7K5dOKlNRfVnlF98ZtRaZv7P0y2jhzx55Z2I/AgCtTwx8WJ9T1a207UtORWuJBGktsTwx4GVOePfNcc3kXmXY+H7055e4ZrSbP8AtgMoz9M/WtDQmjh1/T4YpNNhZ7iMeRpatLK43DIaVs7V9cN0zxXkxrVudNyP0GvluXewlGNGzSet39/f71bue5UUUV65+dhTJYYp02TRpImQdrrkZHIp9FAGY/hzRJF2vpFiw44a3U9OnasvUvC0kksL6QdMsCkpZidOSQ7cDAB4wQcnPvXT0UAcda+FNXgk8z+0NKSVmy8sOlIrFcnj6428n0q1pXg+0ggaPVbPSbzBHlFNOjjCjvwB3rp6KAM/+wtICqo0uzCqdygQKMHjpx7D8q0KKKACiiigAqG0/wCPdfqf5mpqhtP+Pdfqf5mgBkv/AB/23+6/9Ks1Wm/4/wC2/wB1/wClWaACiiigAooooAKKKKACiiigCC2IJnx/z1P9KnqtZgj7RnvM39Ks0AUtUAa1jU9DcQjrj/lotTfZIvR/+/jf41U1udLeyhd5ETN1Aq7zwWMi4FS/a5PWP/vl/wDCgCb7JD6P/wB/G/xo+xw/9NP+/jf41B9rl9Yv++X/AMKPtc3rF/3y/wDhQBN9jh/6af8Af1v8aPsUP/TT/v63+NQ/a5vWL/vl/wDCk+1z+sP/AHy/+FAE4tIozvAkJXkfvGP6ZrzK1+G0Mf8AZc8rTm+iuprq+uESX98zh9uxSdq7WcHOM/LXo32uf1h/75f/AAo+1z+sP/fL/wCFZVI1JfBK3yuUmlujy+x+GcsOlR2VytvmIwRCaGG4LPAsivICHcqC+xeFAA5rdv8ARPEQv/Elxo2opaNrHlFJpLRzLBsUIQCDjGAcHGQWNdn9ruPWH/vl/wDCgXVwzKoaDLHAyHH9Kz9nX/n/AA/4I7x7FDwdpM2ieHILGeO1R0Zifs0bqGyfvNvJYsepJPJreqt/p3/Tv/49R/p3/Tv/AOPV0RTS1ILNRzzxW0LTTyLHGgyzMcAVF/p3/Tv/AOPVy/i+S7V7FZAvl5Zv3ecFsgD+f86U5cqub4aj7aooXsdDp2uaXqzyJYX0E7x/fRG+ZfqOtaFfPOl+INY1HxPp0xuJJp3u1KL6BsKyj/Z28Y9q9j1DV30rX5ISJniawU20CoxEswZvlDAEAkbRye4rOjV9omduaZa8DOKve6+78vyOjoriLLxXrs8dqZtLi2zSbJJI0kxAvy5Zh9SUxnOcHgBsRR674ivmtrW2jFtcJLA2XhdkKGF2ZJWPIJYAEgccHLdK2PLO8org7fxL4iiu1gl0xoVkllcm8UkhfMcYXZ1CKoPfcCMYzmnv4r1pUW6l0h7ZsAS27o7sg3YwAMBnIwRyODjkjBAO4ZQylWAIIwQe9QPZwNGyiFMkEDinYuAFClGwB8z8E/lSf6V6Q/maAKdtAqmRTY8hgDyv90e9T+Sn/Pj+q/409EuleRv3PztnqfQD+lO/0r0h/M0AReSn/Pj+q/40eSn/AD4/qv8AjUv+lekP5mj/AEr0h/M0AReSn/Pj+q/40eSn/Pj+q/405vt/8AtvxLUz/iZ+tp+TUAL5Kf8APj+q/wCNHkp/z4/qv+NGNS/v2n/fLf40jPexFTK9vsJwSsbHHH1oAijhT7TN/oP93uvp9asxiOHdI0AgVVJZ2IwB+dVo7g/aZv8ASU/h/wCWR9PrVDX4LzUNGvYba4ExaIYgWPaXwwJ59wCMe9VFJySZFSTjBySvYvW3iHSruYQw3iFycKDxn86065mIWotbL+zbITRKA0sgj+YHPIPcNnJNX01O+2Rq2nSFyvzHBAB/KsqtanGbir6eRpQo1p01OTTv2Zr1nNCn21f9Cz8jd19R71GNRvZJFiFhIhZgC5yQvPXp6U9pv9MX/Sh9xv8AlkfUUQqRnsVOnKG5N5Kf8+P6r/jR5Kf8+P6r/jSeef8An6H/AH6NLFqEJhQyOQ+Pm+Rhz+VWQHkp/wA+P6r/AI0+yAELgJsAkb5fTmmvqVoiM7SEKoyTsbp+VOsZFmgMsZyjsWU4xkHkUAVtU17T9GeFL2VkMoYqQpIAXqT+YrC0rxzBcW/m38XkiSXZF5SlhjJ6+nSn+MJY4ruw8zR/t+5ZMH5sr0+UY659/SuL0l4Y7W3eTTEuyZiqBi4MeSem3+teVisVUp1eWLVvR9uv/AOylRjKF2j18EMoI6EZFZl9rtvZ3D26RS3E8aeZIkQHyL6nJ/StKP8A1a8Y4HHpXB6hINF8Q3l5cJumdw1urD5WVvvHPsMrj3rqxdaVKCa+b7CwdGNWbT7aLudjpmqWurW3nWzEgHDKwwyn3pNX1ex0LTJdQ1GcQ20WMsRkkngADuSe1YnhK0SO4vrm2Z2sZCFhZ027sZPA9BnGayvjCpPgCUhSQtzCThc4+brW2DlKrCLqbsxxkY0pyVPZD9O+K+gahdiHbPCpBIeQr/IEmu4iljniSWJ1eN1DKynIIPQivl/S5AUKF0YeUfk+xGQ/596+jvDSlPC2lKVKkWkQ2kYI+Udq9HFUYU0nE4MPWlNtSLG6YW0wWJCu6TkvjufapIXuPIj/AHMf3R/y09vpUJSU28xW62DdJxtBxyadDFP5Mf8Apx+6P4FrjOomM0yFd8ShSwXIfOM/hSN/x9v/ANcv6moriGfYn+lP/rF/gX1+lQz2t08sqJqMsTGHh1jQleT6jFAF62/49Yf9wfyrhtTh1+51We6GjF5I5ALWXKfu1UnGOec+9dzbf8esP+4P5Vy2uapeR67H9kvUS1t9n2j5sBMtzuH8XHpXVhXLmfKl8zzsyUPZpzb36W/Xtv8AidRaSTS2cMlxF5UzIDImfutjkUy6so7sp5jzLsJ4jlZM59cdasKyuoZSGVhkEdCKr3c9zDs+z2Zuc53YkVdvp161zPc9COwtraLahgsszhjn97IXx9M1YqraXFzMzC4smtwOhMitu/I1apDCiiigAooooAKKKKACiiigAooooAKKKKACoLy1jvrG4tJSwjnjaNipwQCMHB9anrM1DQLDU7kXFysxkChMpO6DHPGAQO5o3Gm4u6OBvPh/4iWY+XcaPqadFkv7YCXHuwUk/ias6T4J1iyvrW4v5raO3WZWa10mBU3Ecjex2krkDI5rpI/C2naLA11ZQ3E00ALRpPeyEE+5JP54NSf8IZpBDhlum39c3Un6c8HjrXOsNTTuetPPMXKnyO3rZf8ADL5I2vOf/n3l/wDHf8aPOf8A595f/Hf8ah07TYdMgaG3eZo2bdiWVpCD7E81croPIIfOf/n3l/8AHf8AGjzn/wCfeX/x3/GpqKAIfOf/AJ95f/Hf8aPOf/n3l/8AHf8AGpSQoJJAA5JPao/tVv8A894v++xQAnnP/wA+8v8A47/jR5z/APPvL/47/jWfrOoXkNiG0cWVxdeYoKXE2xdufmOR3rGTVfFrElrXQ0ULn/j6Ysx9MdAfxx70AdT5z/8APvL/AOO/40ec/wDz7y/+O/41z1xrHiAWsP2ex003BUeaHvBtBywO3uf4SM475xW3a3yNaQtdTW6XBQGRUkBUNjkD2oAm85/+feX/AMd/xp6SFycxOn+9j+hqIX1o08cAuYTLJnYgcZbHXA9qwZfG+lw3vlNMghMxgVy2DIwHzFR3C5UH6+1RKcY7/wBd/u6mlOlOpflWx01QWazJaqtwsayZbIjYkdTjkgdsVUvNcs7FnSUyFlRXARCcg9Of8aDr+nZx5zkg4OInOP09x+YqzMtyQyPdwTLKFSMMGTZnfkDHPbFT1lx+IdNllMcczNhtoYISCeeB68DP05qxHqtjLDFKt1GEmZljLtt3Fc5Az6YP5UAXKKgF5at0uYT9HFBvLUdbmEf8DFACS31nBL5Ut1BHJ/ceQA/lVbUNUFpPDaQokl5MCyRu+xdo5JJ/z+WSMwwtd+JL61Evlxuu98RoxbCRjHzA8cmqUlvfwMdOQEypMPsqHOGjw4Z923C/f5GOMAc5FUkjhniJ6pLra/8AX9X7nT6ffwanZJdW7Extxg9QR1FWqytMe6XR7dYlSdo5GhJkfZ8isy54U5OAOMCr2+5/54xf9/T/APE0nuddJuUE32J6KreVLK5aVii4ACxyH3yeg9qPsa/89rj/AL+tSLJILaK28zylK+ZIZGyxOWPU81LXmeteHfEc/jGe8gtbmbTvmQiPUShnhNuy7Ml/kPmYPCjH3sk8VTi8HeNDZ20M+oTG8mle01K9W8J821cIfMjHG102bAMZyS3OTTsB6jdWkF7GkdxHvVJElUZIwysGU8ehApL+O4lsJktZzb3BX93KIw+0/wC6eteR33hLx5PZrI7SS6g2/bJHfFRE0YjSI7d4UblRmJwxy5GBnNdR4K0+/wD+Eg1aS4vrifTNLmlsdOEjNl9zCSQtn7xQkRq3oppNaDi7O5LpfjxtzQatandH/rJrZGynvJCfnT6jcPeui8Pa0Nf0lb9baSBHdlUOQQ4B+8pHUGsS18IJf319eatE8ccspa2thOWaDnmQSA5VmPO1Tge9dLHp0MMMcMbzKka7QBKRn3Pqfesqan9o78W8La1Je9p6f1+HYt0VW+xJ/wA9rj/v83+NH2Jf+e1x/wB/mrU88s0VW+xr/wA9rj/v61L9jX/ntP8A9/TQBYqC6YKsbMcKJBk+lJ9kX/nrP/39NL9lX/nrN/38NAB9rt/+eyfnR9stv+eyfnTY1Md2UDuymPOGbPOas0AQfbbb/nsn51BdNp97D5U7xsuQw55Ug5BB7HIq9RQNNp3RzWl+G/DGjalJqFlbxJcuSQxcsEz1Cg8L+Fbv261/57p+dWKKSioqyLq1qlWXNUk2/MzNW17T9FtEuLybCyf6tVGWf6Cm2fiGwvdMl1BTPHBEnmOZYWUheuenIwOozWb4r0aLUXhmubKS5hiXJ8gfvQQc7cZ5VhkHuDg1R8J6fq9zqN9qWrRSQW88ZiS1c4UKccBOwAGPeuhQg6fNfU43UmqvLbQ64Xlu14LVZAZjF5u0DPyZxnPTrT5Z44TGHLZkfYuFJ5wTzjp06niuEl8N6pFsa4Et1Eu6AJDgt5aYELEFl5xvJOeC2fcXU0TU44DK4upLtrlQ8guAJGiEG3g5wDv/AF5rA6DrRcwm7a0D/v1jEhXH8JJAP5g1LXC6fpOsRXttcvav9jgVUa3DhHmUOxVj8xwVzu25wfbgV2zxuzZWZkHoAP6igCSiofKk/wCfmT/vlf8ACjypP+fmT/vlf8KAJqKh8qT/AJ+ZP++V/wAKPKk/5+ZP++V/woAmoqHypP8An5k/75X/AAo8qT/n5k/75X/CgCaiofKk/wCfmT/vlf8ACjypP+fmT/vlf8KAIVuFW7uFCSttKglUJGcf/XqeOYSNjy5F4zllwKSC3ELSNvZ2kbcxbHpjt9KmoAQAAkgAE9feloooAKoNef6Yv+j3P3GH+r9xV+oT/wAfq/8AXM/zFADPtn/Ttcf9+6Ptn/Tvcf8AfFWaKAK/2v8A6d5/++KZp83n2xl8uSIs5JjlXay55wR2NW6ieAM+9XeNj1KHr9c0AS1UsdMstNWRbO3WFZG3MF7n/JqTyH/5+pv/AB3/AAqvYR3MlhA9xeyPMyAuyoqgn2GDik4pu7Hd7F+mvGkq7ZEVx6MM1F5D/wDP1N/47/hVeyiu2tQbm8Z5dzAmNAoxuOOCD2xTEXwABgDAFMmhiuIXhniSWJxtdHUFWHoQetR/Z3/5+pv/AB3/AAqGzgnNnCZb6eWTYNzlUG4+uAuKAKFn4O8PWFwJ7XS4Y3HTkkD8CcVuVRljuVu4ES6bymDeZuA3cYxjjH1zU/2cnhriZh3GQM/kM1UpSl8TuTGMY7IiEML2srmJGJMhyVHPJoa3h+wE+THnyv7o9KsSKFtnVQAAhAA+lRt/yDz/ANcv6VJQTf6mH/fT+YpSM3jD1i/qaSb/AFMP++n8xS/8vx/65j+dADYmnjhRDACVUD74rn7jwdYXNzNPJDdb5nLvi54yTmupoq4VJQ+F2MqlGnVVqiuUrSJ7KzhtYoG8uJAi7pcnA96m8yf/AJ9//HxU9FQ3d3ZokkrIg8yf/n3/APHxR5k//Pv/AOPip6KBkHmT/wDPv/4+KPMn/wCff/x8VPRQAUVTOr6apKtqNoCOCDMvH60061pS9dTsx9Z1/wAaAL1FUP7c0j/oKWX/AIEJ/jSrrOluwVNSs2Y9AJ1J/nQBeooooAKKKKACiiigAooooArX/wDyD7j/AHDVmq98M2E4/wCmZ/lUvnRf89E/76FAD6KZ50X/AD0T/voUedF/z0T/AL6FAD6KZ50X/PRP++hR50X/AD0T/voUAR3hxZTn/pm38qnqpfTRfYLj94n+rb+IelWPOi/56J/30KAH0Uzzov8Anon/AH0KPOi/56J/30KAH0Uzzov+eif99Cn0AHfNZT+H7B9S+2GPq29osDY0n98j+97961aiDN9rZc/KEBx75NROnGatJXLhUnC/K7XHNDE7bmjRm45Kg9KattAi7VhjUegQCpaitmZ4FZjk5PP4mrIG/YbTGPssGPTyx9akSKOJAkcaoo6KowBT6jnhW4i8ty4G4NlHKnIII5H0/HpQA/A9BRtHoPyoB5wev86WgDEutEuJtSubmK7WJJ49hwp3qfl6HP8AsfrUkelXVtdSXEF4xJBCRSMxTlieRnsMAfSteindmP1enfm6lXTrZ7SyWGV1Z9zuxUYGWYtx+dWqKKRrGKikl0CiiigYVDcXHkGEeVJJ5sgj+THy5B5OT047VNVe6+9b/wDXUfyNAFiiiigAooooAKKKKACiiigAooooAr/8xD/tl/WrFV/+Yj/2x/rVigAooooAKKKKACiiigAooooAKKKKACiiigAooooAKKKKACiiigAooooAKKKKACoT/wAfq/8AXM/zFTVCf+P1f+uZ/mKAJqKKKACiiigAqvY/8eEH+4KsVBZf8eMP+4KAJ6htf9R/wJv/AEI1NUNr/qP+BN/6EaAJqhtP+POH/cH8qmqCz/484f8AcH8qACT/AI+4Po38hU9QS/8AH5b/AEb+QqegBk3+ok/3T/KoyCbAgDJMWAB9KlkUtGyjqQRUKG4SNV8lOAB/rP8A61AEU1xH5UQxJw6f8s29R7Uv2iP7aeJP9WP+Wbev0ouHn2J+5T/WL/y09/pRvn+2n9yn+rH/AC09/pQBYgmW4gSZA4VxuAdCp/EHkfjVfUdTtdKgSa6k2LJIsSf7Tt0GTwM+5FWIGmeFWniWKQ5yivuA545wO3tUOo6fb6rp1xYXSloJ0KOFODj2PY0Cd7aFWXxDpdtHG9zdLB5m8ASAjaUOGz2GCQOe5pkHinQ7iZYYtSgaVlLBMndgDJ49gD+VWRo+ni3WB7SOVFB/1o3k5IY5J65IBPvTY9C0mJ0ePTrVXRPLVhEMhcEYz6YJH4mgUeblXNuZ7+NNCWWJFvA4kPLgYEff5s4x/wDWrbt547mBJoixRxkblKn8jyKqHQtJLs5021LMQSTEDkgY/lVu2tobS3SC3jWOJBhUUcCgolooooA8Kb4BX4vbqVNb050uHdx52miQruYHqW7Yxn3PrWr4c+Emq+Gor1YLnRLiW7l8x5pbJwygdEXbIAq5JOB7egr0rXygtIt8rxjzOqDPY+4rn90H/P7cf98f/ZVrGnzK5y1sVyTtb8SG38MeI7ePywnheQZzmXTpGP5+Z0rO174d614iiit7m40G1iSeKYvaae6t8hJwMyHGc8+uBWvug/5/bj/vj/7Kt/QChtZvLleX5/4xjt9TRKnyq4UsT7SXLb8TXoqsJbrvar/39/8ArUpluccWwJ/66D/CsjqLFYniPxVpfha2jl1CR90uRFFGuXfHXHt05NaEk18sTNHZxvIOimfAP44rhPibbpd3WmwPbQ3ZKSEQGXypeq8xseCfVTntx6ZV5yhBuO535Zh6eIxUadW/Lre2my89CAfGfTPMwdKvNmeu9c/l/wDXrtvD/iTTfE1k11p0rMEO2RHXDIfQivEP+Edtt2BoXiUt/cKKB/31s/pXo3w2UWdtqMMdpFEVePNvDKJXTg8yPnBJ9B0x0Ga5MPWqynyz2PoM4yzAUsK6uHTUlbrfrbu3+h6BRUBuHAz9lmP02/40tvO0/mboJYdj7f3gA3cA5GCeOf0NegfIEhZN3lll3EZ2k8kUnkxf880/75Fcb4k1BdL8a6dds6IFspAd7AAgyJkZPtWlJ430AQFo9RgeXHEe8A59+1ZqrG7T6HY8FV5ITgm1JdttTeVIGztWM7Tg4A4NO8mL/nmn/fIrm/BkonTWpgyt5mpO25TwcoldCbq3VirTRhgcEFulVGXMrmFel7Ko4dh/kxf880/75FMlFvBDJNIiBI1LMdvQDk0G8th1njH/AAIVUvb62ktLqCK5DT/ZncJCwMmAMZUfUj8cU3sRBXkkzzHVvi7DI0sGn6MjQkFRJO2CR67QOPzq/oHxXtdQ1GCy1HSVtzM4jSWFtwBJwMgjOPzrjBbwXuJDY6RqJI/1sN59kkP+9GzAA+uB+dW9Miis9WsxHb6bYO06KBBP9ruW+YcLhiEz68f0ryo163Ndy09P6/M/QKuVZZ7FwVL3rb82v53/APJfke6+TF/zzT/vkUeTF/zzT/vkVHvus8QR/wDf0/8AxNG+6/54R/8Af0//ABNesfnossMXkv8Au0+6f4RS2pzaQn1jX+VRyvc+U/7iP7p/5an/AOJqO0e5+xQfuI/9Wv8Ay1Pp9KALtQj/AI/X/wCua/zNJvuf+eEf/f0//E1EHuPtj/uY/wDVr/y1PqfagC5UFp/x7L9T/M0u+5/54x/9/D/hVF7Z7/SZLSaICKUMrbZiDjJ74oA1KK5/S/DNvpF99rtUnMm1kxLeO64JBPBHsK2t1x/zxj/7+H/CgCUjIoB5wev86i3XH/PGP/v4f8KCbgjmGP8A7+H/AAoAmoqAPcZwYY/Y+Yef0pd1x/zxj/7+H/CgCaiod1x/zxj/AO/h/wAKN1x/zxj/AO/h/wAKAJqo6lqkGli1M6uRc3CW6lQOGbOCfbippJLsKPLt4mO4AgzEYGeT93sMnHeua8dO72+lwQ28ssh1CLGBhckMAMnjvUVJOMbo6MJSVWsoS2Z1tZkuowya2umBX86JEuGbA27SWXH1yKyba48WW9qsP9k2sm1cB3uxuH/juDWdpL3sPjOX+0LOaOZ7SPcVIkHMjnJI7VLqapG0cJaM5Np2Wlmn19TuqKikacN+7iRlx1L4/pTd9z/zwj/7+n/4mtThJ6Kh33P/ADxj/wC/p/wo33H/ADxj/wC/h/woAmoquZLrtbxf9/T/APE0nmXn/PtF/wB/j/8AE0AWaKqiW98+NWtYhExO9xNkrxxgbeeferVABRRTXdY0LOwVR1JoAg/5if8A2x/rVms7zp31MGG1fy/J/wBbIdq53dPXP4Va/wBLx1gz6YNAE9FV/Plj/wBdAQv96M7h+XX9KnVldQyMGU9CDQAtFFFABRRUTXMCsQ00YI4I3CgCWioPtlt/z3j/AO+hSrd27MFWeMsTgAN1oAdNPFbxGSeVIox1Z2CgfiarHV9MBwdQtOTj/XL/AI1zHxQs5rrwhI8O8+RIrsF7jp/WvLxbB9XaBlMX2i3YrmQlBgnB+uAOOxrenRU43uY1KrhK1j6EoqlZvb2eiQO0wFtDbqTK/A2hepz04qcXdsQCJ48H/aFYGxNRUP2q3/57x/8AfQqJdtzcSbZn2KFA2NgZ5zQBbqK6uFtLSa5cEpDG0jAdSAM037KP+e0//fw1T1WwMukXscb3DyPA6qokPJKnAoBnMp8SVk05NQHhfXPsrwidZCIBmMjIbBkzjHNYP/C/vDOM/wBnatj/AK5x/wDxdcuml6mILNpfBOq3En9nx2d1Hc2EDgGOAxq0Tk7l+fae3ANY1vo/jOKxsLWXwTdSraxtExO4b1K7cDn5T3JHUjNbKMTnc59D0H/hf3hn/oHat/37j/8Ai6P+F/eGR107Vv8Av3H/APF15+dL8dGzu4D4Ouc3KFWIQgDJkJyucN/rTjPQqp7VbaLx79tvrlfBUv8Ape0lXi3+WQpHyntzsb6oPenyxFzz/pHa/wDC/vDP/QO1b/v3H/8AF13vhXxNaeLtCj1axinigd2QLOAGypwehNeEWdp48s4YIh4MndIbmO55jOWZEVME+hC5+pr1r4ZaZf2ng8Lqdrc2N1JdTytA7EFQzkj+dROMUtC6cpN6nb1Cf+P1f+uZ/mKT7MP+es3/AH2aT7Iu7d5k24DGfMNZmxYoqD7MP+es3/fZo+zD/nrN/wB9mgCeioPsw/56zf8AfZo+zD/nrN/32aAJ6gs/+POH/dFH2Yf89Zv++zUqIscaov3VGBzQA6obX/Uf8Cb/ANCNTVDa/wCo/wCBN/6EaAJqgs/+PKH/AHB/Kp6gsv8Ajxg/3B/KgBJf+Py3+jfyFWKry/8AH7bfRv5CrFABRRRQBDc/cj/66L/Ok/5fj/1zH86W5+5H/wBdF/nSvDuk8xZHRsbflxz+YoAloqLyn/5+JfyX/Cqd9dnRdLvb6X7VerCrTeXHGGfAH3VAAz0zz70AaG4etG4etcNqXxFtodMvJ7azlIiURpdbkkhEzw+bGMq2WU5AJHel/wCFi2Fto1veXVrdO7mWNxEq8vEFL4yehLcU7MV0dxketLXCR+PlfxZb6U9pLCJPMtzbsFMn2hZEH3g23bsYt17evFdTYazb3t7c2BDxX1tzLC64IUkhWB6EHHHP5UWHc0qKKKQGfqsVxPDGlsYw4bJD46Y9xWUNO1U9Dbn8F/wqy/hTT5JWla41TexySNSuB/7PXL614K068vylz4d1K+hjwsVy2tTcA7cnaXyMZb67ferU2lYwnQjOV22b507VR1NuPwX/AArV0qG4gikS5Me8tkBMdMewrlvDngHQ4LU3Mel6jpk0nysg1WclhwQTh8VvL4V09JVkFxqm5SCCdTuD/wCz0ObasEKEYS5k2bdFFFQbhXGePdAv9ZitZLO1tb5IgwktJ22Fs4wyMCCCMevOe9dnVDUdF0/Vnhe9txK8BzE24gocg8YPqB+VROCnHlZ0YXEzw1VVobo8Z/4RfUC3lf8ACIaoe2xtQHl/+g9Pxr0nwJoV/omn3AvoLW185gY7W35EYA6sxJLMfqegq2PA/h1U2rpwX5dpIkfJGc8nPNb0MSQQRwxrtjjUKoz0A4FZUsNGnLmT/I9HG53WxdL2UopJ+cn+bf8AmPpDnBwMn0paK6Dxjnm0xZNYj1N9GJuI0aMMZlIIbBJIPfitL946NnTF+9gKWXketX6KlRSNZ1ZSST6epiaZpUOnXU0sGmGFrmUyyP5qnBIAIAHbjpW3RRTSS0RE5ym7yd2FRXEIubaWBmZRKhQspwQCMcVLVa+tTe2jwC4ntyxB8yBtrjBB4PvjFMSbTujy7UPAPiFJmH2PRtXTPE8ymKUj/a2lcn3JNW9C8Ca2t7DLdR6ZpVsjhnWyUtNIAc7d7ZIBxzg/hXWN4XumHPiTWNw2hSJVA4GOQBznqasW+g3MF3DM2uahKsZBMbsCr9fvcfyxXMsLTTue1LP8XKnyafd+l7fgbdFFFdJ4g1/uN9KZa/8AHpDj/nmv8qkb7jfSobLmwtz/ANMl/kKAJ6hH/H6//XNf5mpqhH/H6/8A1zX+ZoAmqC0/49l+p/manqG0/wCPdfqf5mgCaonmw/lxp5kncZwF+pomdsrFGcO/f+6O5p6IsabVHH86AIfKnfmS4K/7Magfqc0fZiOlzOD/ALwP8xViigCsftEY+bE6ew2sP6H9KljlWRcg57dP0PvUlQTIVJmQZYfeUfxD/H0oAnopiOGVSDlWGVb1p9ABVKSxleVnW/uUB6Ku3A/MVdooGm1sVFs5QWzeznK7R04689Ov+FQz2simH/TbjmUf3fQ+1aNQXAyYfaUfyNAN3J+1FFFAgooooAKKKKACiiigBrusaM7HCgZNRxxl2Eso+b+Ff7n/ANekl/eXMUX8I/eN+HT9efwqegAoyPWvOviEvm69pUJlMayRsCwzxyK5hIovLEm/EGdvm/a+/p93r7VxVMW4TceXbz/4Bzyr8smrHtlQOhiYyxD3dB/F/wDXrg/Ai+X4iv4RKZFjiKhj3w4r0OuijV9rDmtY1pz51c5y+8UywySfYNMfUIQMpLBcJtY4ORyf7wC9zz04p0XiO7k1hbRtHkS1LlTeNcx7AMZzjOeenFbEEaRyywhFCg71AA6NnP65/OrG1f7o/KtSyL7Xbf8APxF/32KLYhoSVIILvgj/AHjUu0eg/KloAKKrXuoWemwrNe3MVvEzhA8jbRuPQZqoviPRHUsmq2bqMZKzKerbR09+KALF1qFpA7Q3OQu3kshKnPauYk0zQn8TR+II5nLxR48iOLC9OvIFdAPEeiNv26tYvsjMrbJ1bCjqeD0FVrLXNEihbdr1jJ5kjON9zH8uT0HTgfnTTsJq5q213FdeYE+9G21gSOuAe31qes2PXtFcyiLVLFzEnmSbJ1O1fU4PT/Gp7PVNP1FnWyvra5ZPvCKUMV5xzj3BpDLdFFFABRRRQAUUUUAFFFFABRWLr/iex8OC3N6k7eeWCeUoOMYznJHrWQvxK0VukN7/AN+1/wDiqdmYzxFKD5ZSszsaK5JfiJo7dIbz/v2v/wAVW5o+tW2t2zz2qyKiPsPmAA5wD6+9FmEK9KbtGV2aNFFFI2CiiigAooooAKhtf9R/wJv/AEI1NUNr/qP+BN/6EaAJqr2P/HjB/uD+VWKr2P8Ax4Qf7goAJv8Aj9tvo/8AKrFVpv8Aj9tv+B/yqzQAUUUUAMljEqbdxXBBBHYimeVJ/wA/Mn5L/hU1FAEPlSf8/Mn/AHyv+FQyWPn281vdSyXEcp7/ACFRxwCuD2znrVyigDlbPwHolpd3krWUUsU7L5UBTCQqIhFgDODwG5Iz8xq4fBnhx5XlbR7cs+d2QccgA8ZwMhVz64Fb1FO7Cxjy+GNFluJbh9Mt3mlfe7leS25Wz9dyIc/7Iq/bWcFoHFvbxwh3Mj7FA3MepPqferNFIAooooAKZL/qZP8AdNPpkv8AqZP900AEP+oj/wB0fyp9Mh/1Ef8Auj+VPoAKKKKACq0b3MkayDygGGQOas1Daf8AHnD/ALg/lQAn+lesP5Gj/SvWH8jVOT+3PtMvl/2d5HPlbt+7pxu7dfSmKfEOPmTS847PJ1/KgC//AKV6w/kaP9K9YfyNQWx1UzJ9rSzEXl/P5TMW3+2R0q9QBB/pXrD+Ro/0r1h/I065z5OASMsoJBwcEgVUkkt0EpEVxJ5TBSIyxJz6DNAFn/SvWH8jR/pXrD+RrMmv4khZ0sbwEYx5u5Acnp1pbXUQHhJt5v3u5SId0qggK2SfTnGe9BPMr2NL/SvWH8jR/pXrD+Rpv21f+eFx/wB+jR9tX/nhcf8AflqCh3+lesP5Gj/SvWH8jTftq/8APG4/79NR9tX/AJ43H/fpqAHf6V6w/kaP9K9YfyNN+2L/AM8bj/v01L9sX/njP/36agBT9q2nmHp6GobMXQsbcZh/1a9j6VL9rX/nlP8A9+jUVpdqbOD91N/q1/5ZH0oAm/0r1h/I1EPtP2x+Yf8AVr2Pqal+1L/zzm/79mkiYyXLuEcLsAyykc5NAC/6V6w/kaitftP2dcGHqex9TVyqwtpVG2O6dVySBsU4/SgAtd7yTSSbS27YNvTA/wDrk1i+Obg23hadxKY8uilgccFhxWxpqSRWYjlmM0qOweQqFLHJ5wOB+Fcx8UW2+Bbluwliz/32Kzqu0Gzsy+Kli6cX/MvzPPRcTFQweUqehBOKRrmRQS0jqB1yxGK5aPXL2JAkd9Kijsr4/wA9BTJNXuJo2SS6Zlb7wJHPOf5k15ntEfoSwk762PorwtO1z4X06VpDIWhHzE5zWvXPeBCT4G0cnvbj+Zroa9WDvFH5zi0liJpd3+ZBbgDzYeyPwPY8/wBf0qUHBwfwNVPKlkvZ2jnaNQFBAUHJx7/UVJ5E+Obtj9UX/CqOcs03ev8AeH51UKyurJ9okkVgQSsa/wA6f5VqOHtkX3aMY/OgCx5if31/OqWozsLZvswE1wnKxqwyTg4qz9ktv+feH/vgVBJBbQTRyQwRrIzqrMiAEgZwCfTk/nQgZlaONWjSaJ0uNhCyK9yRu3k/MBk8Dr24rULamBwkDHHfI5zVlkmaaJxKEjXO9Nud/HHPbFOaQLLHHj7+efTFaSqXd7IxhR5Y25mZtx/bQkU2/wBnYEYO/hRz19SfxFWLeS9W1P2swJLvABzgEYHv1zV2oZo7a4QJOkUqhgwVwGAI5B57ipcrrY1SsJ/pXrD+Ro/0r1h/I1DPBaJEWSCAsCMfKK43xR4iutGuLe3sdPt5GkALM7svBbGAAf1JrKpUjTjzSLjFydkduFvD1lgH0jJ/9mo8q6PW5Uf7sX/16xNKv2vrNZ7uBbcg/OPOYhQOpzmtVItPlRXSZXRhlWWckEeo5pwmpxUlsxSTi7MdaRSxXEqzTtO+0EOVC8FmwMD0GBVyqKR29vdI8LA7xsb94W+nU/UfjV6qEeZfEubyNe0mQ9FjLH8GFcralra4DJfwLBvy2Jc5XPde/HYivV9e05r6+gY6Na30aRlS8wGVJPGPYY5+orIGjxK/lt4W07fwMgrjJI4656Z/L3rgq4SU5uSZyzoSlJyTM74f3L3fiXUJ3ILSQljgAfxj0r0iue0Kwa0vGkGi2tirIVMkWAx6HB9uv5e9dDXTQpunDlZtTg4Rsyq8YkvgCWGIudrEd/b8akNrGf4pf+/zf41GsSXE0krqGUHYufbr+pP5VJ9kg/55LWxoJ9kj/vz/APf9/wDGk+xx/wB+f/v+/wDjTvskH/PJaPskH/PJaAIZtMtbhNk6vKmc7ZJGYfkTTI9G0+IYjt1QeikirP2SD/nktH2SD/nktAFZNF06P7lpEuQV4XHB6j6U06HppYN9kjyOAdorifHPjv8A4RnUhptlpkck/lh2lnzs56YA6/XNcjD8WdYWUGfT9Okj7qsbKfz3VzTxdKEuVs9zDcPY/EUVWhFWe13ueyLoWnLwtsi5GDgY46/zA/KnQ6RZ25JgjMRPBMbFc/lVPw5qFr4h0K21NLNoBMD+7fsQcHB7jjrWr9kg/wCeS10Rakro8apTlSm6c1Zp2Yz7Gn/PW4/7/N/jTvsij/lrP/39NL9kg/55LR9kg/55LTIGvaK8bJ5067gRlZSCPoaliTyokjDMwRQu5zknHcnuaZ9kg/55LR9kg/55LQBNRUP2SD/nktH2SD/nktAE1FQ/ZIP+eS0fZIP+eS0Aed/FkkDRwOpaUD/x2udt7aKxhiSaO3DBh9qZyJCTkbo8dVwPm3D061r/ABVgh0610GC1jWKKJpdiDoPumszTr17swXSQGZJJUaUCbIjlZ8sx/iGAPptJBJGBVrY8fEJPES+X5BNAslsElRY9RIMkSLGEV488bSDh+Mkd+Oprt/hy27RLk/8ATwf/AEFa4KOVtGt5j5vnLIgEcdxDsIkyR8oPzYUEnIwMmu0+GsUU2h3RdFYi4IBI/wBlaHsLCpe3XezO6oqH7Jb/APPFPyo+yW//ADxT8qg9kmoqH7Jb/wDPFPyo+yW//PFPyoAmoqH7Jb/88U/Kj7Jb/wDPFPyoAmqG1/1H/Am/9CNH2S3/AOeKflUqIqKFRQqjoBQAtV7D/jwg/wBwVYqvYf8AIPt/9wUAJN/x/Wv/AAP+VWarTf8AH9a/8D/lVmgAooooAKKKKACiiigAooooAKKKKACiiigApk3+pk/3TT6ZN/qJP90/yoAIf9RH/uj+VPqOD/j3i/3B/KpKACiiigAqCz/48oP+uY/lU9QWX/HjB/1zX+VAE9FMmmit4WlmkWONBlnY4AqH+0bIKrNdwoGBI3uFPHXg+lAuZXt1LNFVjqNiF3G8twucZMq4z6daW0v7S+j32txHKuM/K3IHuO1AyWVPMjK5KnIII7EHIqBLVo2ZkdFZvvER9f1q1RQF2UxFLcRESyRsu8jBiBHBx61JBaiBsgrwCAqIFAzjPT6CnW/+rb/ro/8A6Eapy2t200rx6w8auPkTykIT8xzRcDSorH+wamemvyf+A0fp9Pxq9bQXEU8rzXrTowARDGqhMdeR1zQBaooooAKKKKACq9j/AMg+2/65L/KrFQ2g22UA9I1/lQBNRRRQAUUUUAQL+7unU/dl+dfqOCP5frUOq3VraWLNeQPPA7BGjSEy5z6qAeKtSxiRMZwwOVYdjTY5st5cg2yenZvcUAnbVHL/AGrw3yf+EckC84Y6SQDj/gNTXTeG7RoQ+gBvNj8xfL0zdgccHC8HnpXT0UuVdjT21T+Z/eYkXiOyBjhWx1CJTtVAbJ1GCcDHHStpmCqWY4AGST2oJCgliAB1JqD/AI+SOCIQc8/x/wD1v50zMdbKfLLsCGkYuQe3oPyxTj+8cqfur19zUlc54n/4SFtOjj8OIv2s3G+SR3VQEXLbeQfvEKvToTyOtAHR0VwcuofEGWaOWPS4YI0Lq0P7ty+c4bPmdhjjIy3XjkRXVz8SJrWQLp9ghYbdkbBXHQZD+ZweSehxjHPWgDvNu2QKSdjdB6Gm3AAMAA/5aj+RrN0aTVprAS6xF5V2ZiPKRVCqP9khmyPckE4+6K0LhxmHOR+8HUfWgCC21Fp9avrAxBVtkiYPk5bdnPGO2PU1Zl/4+7f6N/IVm2E4k8UavF5agxxwHeqY3Ahup/i78/hWlJ/x9QfRv5UAMsjIYpfMlaQiaTBYAYG44HHYDiltoITawkxRklB/CPSltMbJcf8APV/50+2/49If9xf5UARXUMSQMyxopyOQorldcitFmiupnuLeRQFWeKVVDc52EMcHueldmVDDDAEehqGaxtLlNk9rDKgOdskYYZ/GplGM1aSuhptO6MXSjDPDG0au0MjcNI4fzAe+QSCK3VghRFVYkVVGAAoAApIraCBFSKCONE+6qKAB9KlppKKsgbbd2RtDGyMpQAMMHAxTY5CrCKU/P2PZ/wD6/tU1NkRJEKuAV96Yh1YLeGIW1Rr0XDLm7W78sIMBlUjgn1zz/Q81oxtOz4tpPMiH8Uo4+gI5P1p3n3PnmHyYtwQNu8w4649PagC3UMkhdjFEfm/iYfwf/XpvlTSf62bC/wB2IY/Xr+WKmRFjQKihVHQCgARFjRUUYVRgCnUUUARzyGKFnUAkdM0z/SvWH8jRd/8AHs31H8xU9AEH+l+sP5Gk/wBL9YPyNWKKAPI/Hkvl+J5I57i3i3ojCLUIDJbyHbglGAJQ9iOO3NcyTbwDeW8LW/8A00RZJ2H0U7hn6ivUfE3g281W+kvtM1MW8sqqJre4iEsMmBgHaQcHHHQ1z8Hw+8SCUE3ehWgB/wBbbWK7x9PkGPwIrzKtGo5tpf19/wDkfcYHMcLHDQi6iTSSa1X/ALa7/wDk36HS+CWvX8O20iOZIXMjNJdKVkdt3DBRwq46D0xXS/6V6w/kaq6HpKaJpUdktxLcMCWeaY5aRickmtGvQppqCTPj8XUjUxE5w2bdiKJ5DI6SbMqAQVz3z/hUtRL/AMfcn+4v82qWrOcKK8/+IPxQi8B6lY2T6W1411C8ob7SsQUKenINc9bfHR7vV7XTLfw3HNc3UvlR+VqsbqDxkkheBg9fY+lAHsNFcjF4u1GafyV0uxVueX1B1Xj3MOKsSeIdWjUE6dpRywX5dVJ6nH/PLpQB01Fc34K8WL4x0e4v1s/spgu5LVk80SAlMZIIA45rpKAOT8beDZPFosRHfLa/Zi5OYt+7dj3GOlcIvgC2jlaH/hIiJD8rILCTJH4HkV7PRTuznnhaU5c0lqeR2nw+ivp/Kh18ySAfxWTjge5Nd94U8Ov4b0+a1e6FwZJfM3BNuOAMdT6VvUUNthTw1KnLmitQooopHQFFFFABRRRQAUUUUAFVrD/kH2//AFzFWaraf/yD7f8A65igAm/4/rX/AIH/ACqzVaf/AI/rX/gf8qs0AFFFFABRRRQAUUUUAFFFFABRRRQAUUUUAFMm/wBRJ/un+VPqO4IFtKSQAEOSfpQAlv8A8e0X+4P5VLUVqQ1nCQQQY1IIPXipaACiiigAqCx/48Lf/rmv8qnqrpsiy6XayLu2tEpG5Sp6eh5FAEtxbxXdtJbzoHilUo6sOCD1rPPhzSXtY7eezS4WMYDTkux9yTzmtWigVle5lf8ACNaIIGgGl2oiaQyFBGMFjjn68D8qs2WlWOnM5s7ZIPM+8EGAfwp9lFHFHKI0ChpnY47ksSTVmgYUU2RtkbPjO0E4qlJqCwvGk01rG8n3VaTBPGfT0pNpbglcd1064/3pf/QmqY2dqettCf8AgAqhOkltp0sC3cELTFyktxJuwzEnocZAJ4HpitGGR2d0cLlcHKnIOaLrYdna4gs7YdLeEf8AABSGytD1tYf+/YqeimIhFnbDpbxD6IKabG0PW2i/74FWKKAIBZWoGBbxj6LTf7PtP+feP8qs0UAV/sNsBgQqBVaysLVrGBvJGSg7n0rRqvYf8eEH+4KAD7Fb4x5fH+8aT7Bbf3G/77b/ABqaSQRRtIwJCjPFQS3ckUTuLK5kKgkKm3Lewy1ACwKkd1LEhOAinaWJxkt6/SrNeR3Ws3setXzjUp4pGuJIgN235EY7VzjtuOB711vhHU52OopqF5NN5ciKhl5IypPauWGKjOfIkYxrKUrWOvqteorxxq4yDKv86P7Qtf8Anr/46ar3eoWuyL96P9anY+tdRsSTuLMwg3bKJZBEiuhfLHOBkc9u5pY/trSyRvNANoBBSI98+re1Z2r3NnPNpuZGJS7RlwvAIB657fT2q1Lc2lw9xEbl0Doo3Rkqw69DQBcFqpYNK7SsOm/oPwHFT1y11ZuiiOxvZnUks0k1/Krg+gwp4p0VvNLORdX8kcIUYa3vJC5OB1BUD15z+FAHT1Gfkct/C3X2PrVOzktbOHyheTTfMTumcu30ye1WPt1t/wA9R+RoAsdaCQBk8Cqn2i0z8spX/dyKBPaZy0u7/eyaAJ1PmPvH3V6e59abcdYf+ug/rTPtdvnIlHvwabJPFM8KxvuPmA8D2NAGPbYi8Va0I4olZhbfPtOSSGGSc+3QVtiCUyo7yr8oOAFPf6k1gwyo/izVlSXcVe0V0/unDH+RFdNQBVtQ6rN0OZWPpT7ZsWkOVI+RfftRanIm/wCurU62/wCPSH/cX+VAEgZT0IpaQgHqAaTYOxI+hoAdRVHVbi+s9LuJ9PtPtt0i/uoN4TefqePeqWjrqcNu32y6+13UpDSsoxFAccqncj/P1ANeWZIQNxJJ+6oGS30FReS85zccJ2iB4/4F6/Tp9adFHHESzMWkb7zv1P8AgPap+vSgA6DAqshDajIV52xhW46HJOKs1Vs2DPdYIOJiOD04FAFqiiigAooooAgu/wDj2b6j+YqeoLv/AI9m+o/mKnoAKKKKAKmo2P8AaNr5Bubm2ywPmW0mx+PesgeFZBHsPiHWmPmmTcbkZ/h+Xp935enuaPGfiZ/Cuh/borQ3MjSCNRnCqSDyx9OP1ryl/i34maQsv2NFz9wQ8fqc1z1cVTpPlluexgMixeOp+1pJcvmz3iiuI8AeOLrxZ9ogvLJYpoFDGaLPltnjGD0P4129a06kakeaOxwYvCVcJVdGqrSREv8Ax9yf7i/zaparTRK93HkuNyEHa5XOMY6H3NKbKI/xz/hO/wDjVnMVtT0HSNYKPqWmWd20YwjTwK5UegJHFcy2meCW6+G7DgY4souf0rso4FgRgjSHP9+Rm/mTXKeZP/z+Wn5D/wCJrWnFPc5cTVlC3KVv7J8Ef9C3Y/8AgFF/hUtvongu4mS3j8N6eGkbAJsov8Kk8yf/AJ/LT8h/8TVnT3mOoQBrq2YbuVUDJ/SrcFY544io5JX/AA/4Ju2Gm2OlW32bT7O3tIM7vLgjCLn1wO9WqKK5z0gooooAKKKKACiiigAooooAKKKKACiiigAqtp//ACD7f/rmKs1W0/8A5B9v/uCgBJ/+P+1/4H/KrVVZ/wDj/tf+B/yq1QAUUUUAFFFFABRRRQAUUUUAFFFFABRRRQBz3jHV7nR9Iims50imedRlojJlACznAB4CqWPspxyRTbXxVaz2McuqWr2EdzM8ESz8iQBd2Tx6A8ex6jmrfiTRX17TEtEnjhKzpLukhEgO056H3wffGDwTSWnhrR9OsngSyR4BK04SQb9rEY4z04GKAKyeMdAiuYrJJ2jXbhSYWRFwGO3kDBAUnGOgzWtZ6rY30Jlt7hSoYoQwKMGHUENgg1Xh0HRfITZplqEPzKDED1//AFn86t2mnWdhB5FrbRQx5LbVXHJ6mgCT7RB/z2j/AO+hSC8tjIYxcRF1TeVDgkL649Kk8tP7i/lUclrBKjq8SEOhRuMEqeozQAkF7bXMKyxTKUboTx+hpzXMCH5po1+rCqtjb6e1r5ltEDEWbl1OSQdp+9z2qX7FZzRKTbRMh+YAoKp8t9CI8/WxKbmBSgM0Y3glcsPmA649aXz4f+esf/fQpn2O1xH/AKPEfLBCZQHaD1x6Zp32a3/54Rf98CpLIttvkkXBXJzgS8UbYP8An6b/AL+1L9mg/wCeMf8A3wKX7PD/AM8Y/wDvkUAVLj7Otu+67YZG0Zm6k9BWFqnhKTUdQju0ngCsuHEsO5sbccn+LnscV0dzbQNbvuhjOBuGUHBHQ1z2v+K9M0uQadeRX7P5SylrZR0OcDORzwaipRjVXLJG+HhVnO1JXZd1HQZLtrdopYspB9ndZEO0r3wAeCavWYhsmFmZ1LRwoBvYbiBxnFc1N4r0/S7tCttqM2YI2VnmyMMoYDBbryK3rG4i1JI9Rjsg32iCN1LhdyqcnaTV/VPZfvLWuXWVdU0qi06Gn50X/PVP++hSG4hVSzTRgAZJLDiodv8A05D/AMdoKBlKtYqQRgg7eaDlLCurorowZWGQQcgiudvfGNtYa42my2VyQsscJnUpt3uu4ALu3HjqQDjvxW9bspj2rH5YQ7NnGBj0xWXc+FtMutVOpuky3hcMZElZeNoUrx/CQBkd8VUbdQKuk+MrTWFsmhtJ0W9LCAmSJ84j3kHY52nGODg5NRJ44tFiklvNOvbKKK4e3d5vLIDpG7t91ieAh+pIxSJ4T0+3eysI7nVl+zq0ltKtwf3IVQhQN7huhz0rRl8L6XPG0c0LSRvcyXToznDO6MjZ9irHiq9wWo/S9dXUbuS0lsbqxukiWcRXIXLRsSAw2sR1BBB5FXrVlSyiLEKoUck1T0rQbXSZpJ45bm4nkRYzLczGRgi52oCegGSffPOat2WJLKI44K9DUO19BiXU8TWsgEqEkcAMKtU3Yg/gX8qdSA8xvPCQl1C8na8lCS3LyBX092CksehDeldH4S0mXTEvfKumkaZ1ZmmtWjHGegzWzrVlFd2DvIksjQo7qkcmwsdpGM9Oa0R0FYxw9OMuZLUzjShF3SINt3/z2g/79H/4qq94t35cX72H/XJ/yyP94f7VaFV7zmOP/rsn/oQrY0MnXI5DJpjzzrhL1Cix2xYs+Dj+LgdcmtCD7ZJLLJvhCn5QTGecEg/xVT18gXGj8kf6enQn0bt3rRsTm1H++/8A6EaAHbbv/nrD/wB+z/8AFVRGrwGVov7QtN6Z3KUIxjg961aTAPUUAZo1SJkV1v7Uqz7AwQkbvTOfeozrdqoy2p2a/VSP/Zq1sDGMDFGAeoFAEC/aHRWWaEqwyCIzyPzp225/56Rf9+z/AI1NRQBDtuf+ekX/AH7P+NEEjNHufHLEcdMgkVNVez5tjn++/wD6EaAG3aj9yQBkzLk461aqhcyRy3Udqy3DSxFZ18rKqcHABbp+BNWMXT9WiiHoAWP58fyoAbadJv8Ars386ktv+PSH/cX+VQpazRhwtznexY7k7n6EU22VrC1it3V2iiQIJd5kOAOrZ5z780AXaZJKkSbnbAzge59BVf7dHLLJBbMss0eN4B4TIyMn6c1Rg1zQy4kbWbGSZl3AtOowD6AngUAaGyW5/wBbmOL/AJ5g/M31Pb6CrCqFUKoAUcAAdKoJrukSK7JqlkyoMuROp2jIGTzwMkfnQt/Y6nb7rO6guYxKiuYpA4HI4OKANCm7FznH5VF9jtv+eEf/AHzSfYbX/n3j/wC+aAKDyyWCtEJ5GjiBJaU72x1OT1NZGleKdPvluHs5REqs0krPEI92Orn/ABPNa11bDfLEkbLGRt+QYwCO1Ylh4aWyWZTPdzLICoD9Qpx+Z965pupzLl26m9NU+R82/Q0Y/EVrNIkcWp2zyOcIqyKSx9q1LS6ZnImkHPC5wMmsm10yOzj2RxOxDbt0g3Nn64q7Fp1teSKby0jm8lt8Xmxg7GwRkZ6HBI/GtIt3Mnsa25f7w/Ojev8AeH51V/svT/8Anxtv+/S/4Uf2ZYf8+Vv/AN+l/wAK1JH3br9mb5l6jv7ipvMT++v51ANOsQQRZ24I6ful/wAKk+zwf88Y/wDvkUAP8xP76/nR5kf99fzpn2a3/wCeEX/fApPstv8A8+8X/fAoA5H4iy7NHtZo5Z4/Lny01uokMY2nJZP4k9R9PpXmIuLdhv8Atfhd/wDpo9nIjfioTH6V7J4l0G01PSjuuJNPa2Yzpc2ww0ZAOTgdRgnivM1sXuLxYofF2jTuzAK8mmqZDkgd0PqO/euDEUpyndK/9ep9bk+Pw1LDKnUmotX3/wD2X+a9Ops/D2S4udQuntLvz9kIVZTbeVaoN6llRBtySP4uMcZBr0rbdf8APSH/AL9n/GuS8DadYpJdX0euS6teBRDJIylEiX721VPTt+Xau0rpoRcYWkeJm1enXxTnSd1p/Wy/JehCscpmWSR0O0EAKpHXHv7VNRRWx5pm6prC6YyI1jf3JcE/6LbNIB9SOlc5canp0MDyR+GdendVyI0s5AWPoM4H54rtMjOMjPpTZQ7QuImCSFSFYjIB7HFNSa2JlCMviVzzlfEyFgG+HnipQTyfIXj/AMiVtw6pp0MizR6DrayIcr/oMv8AhVxNO8Uo8m7XrSRPLxHmyAIbI5OG9M8e9b8QdYkEjB5AoDMBjJ7nFPnl3JVGmtVFFfT75dRtvPW3uYBuK7LmExt+R7VbooqTQKKKKACiiigAooooAKKKKACiiigAooooAKraf/yD7f8A3BVmq2n/APIPt/8AcFACT/8AH9af8D/lVqqs/wDx/Wn/AAP+VWqACiiigAooooAKKKKACiiigAooooAKKKKACo5/+PeT/dP8qkqOf/j3k/3T/KgBLb/j1h/3F/lUtRW3/HrD/uD+VS0AFFFFAFe1/wCPT8X/APQjT7b/AI9Yf9xf5Uy1/wCPT8X/APQjT7b/AI9Yf9xf5UAS0UUUAFFRPOEk2CN3bGTtHSk+0H/nhN+Q/wAaAHT/APHvJ/uH+VctrHhbTNdvFvJtTuIJDCsZWKRQMDPPIPPNdP8AaD/zwm/If40faD/zwm/If4002tjWjXqUZc1N2ZyV74RsbyTcmrtGohSHG1W4Vduc+uBWzpenvaRwW1rqDG3trdIMeWp3kfxZ9cdq07U7oScEZd+D1HzGp6uVac4qMnoh1K9SpFRk7oqvFOqM/wBrfgE42L/hU0DmS2idurICfxFE5xbyn0Q/ypLf/j1i/wBwfyrMxG2/Wb/rof6VPUFv1m/66H+lT0AV2/5CEX/XJ/5rVioG/wCP+P8A65P/ADWp6ACq9iMWUQ9BViq9ic2UZ+v86ALFQXtz9jspbjYX2LkKO5qeimt9RO7WhnQ3xu7JWa2nHmKQ21eh5Bxnt6VJJqLRlcWV2wb+6n/16s3DvHbSvEqtIqEqrHAJxwCe1LC7SQRu4AZlBIByAcetO67EpSW7FRt8avtZdwzhhgj61Hc/cT/ron/oQqaoLviJP+uqf+hCpLIr+3sJBDc3yx4tZPNjeQ42N0yPfmk0mdbjTklQEKzPgEgn7x9CRWJ4xkjnhttPjuAl28gZFb7uOR8x7deKTwa0dvDdWElysl2kpZ1X7oHA+U9+nNdHsF7H2nX9Dg+uP637Cyt3v17HU0UUVzneFFFFABRRRQAVRtpGFssaf6x5JMH0G85NXqpafbrAku1pGHmMFMjbjjcSefqT+GKALUcaxLhe/JJ6k+pp9VzfWouPs5uIxMTjZuGc+n1qxTaa3EpJ7BRSEgYyQM8D3pcikMoz2xjuFuUnmjiClXiQjbyR8+MdRj9TUTaDprrhrWBhjHMKdPT7taRAIIIyD1qG1J8oxnrGxTn0HT9MUAVv7FsMsfs8PzABv3Kc46Z+WpINMtrb/UIsalgxWNFUMR0zgDNXKKACiiigAqC7tEvIhHI8qgHOY5Ch/MVPTZN/lP5ePM2nbu6Z7ZoASGJYIUiQsVQYG5ix/EnrT6ydOg1aO3K3Mybt2QWbecEc54Hfp7VZkj1BkYJPArdjsNW42drmcZtq9mXCwUZYgD1Jo3D1H51TjtZp4mj1MW1ym5WVfL4BBz0PocYqb7Ha/wDPtD/37FQzQm3D1H50bh6j86i+x23/AD7Q/wDfAo+yW3/PvF/3wKAJdw9R+dG4eo/Oo/stv/zwi/74FH2a3/54R/8AfAoAk3LjkimbIcj5Y/bgUn2W3/54Rf8AfArgPEkVzNrU72PlyW8SqHZCAIT33fj6ZrahR9rKzdjkxuKeGpqSjd32PQUEUYwgRR7YFLvX+8PzqtbQWstrFIqQShkB3qgw3vUv2S2/594v++BWTVnY6k7q6JQynoQfoa8z+Jxu4tZ0eRZJRasGXYjYy4yfzPFekpbwxNujhjRumVUCqN7/AGRqC+Vem2kET8LIQCrdOKqEuWVxTjzRseP+FkuZtejj+2zI1teJueRwpVD1B9STkfh717iSB1IH1ridA8NafpGu317Ldw3f2mTdBGqb9mDxzzyBXZKYLuBHASWJwGUkZB9DzV1pKUrrYilFxVmSb1/vD86Ny/3h+dRfZLb/AJ94v++BS/Zbf/nhF/3wKxNSTcPUfnRuX1H51H9mg/54R/8AfAo+zW//ADwj/wC+BQBzl14tlilmSCztZSJXigje92S3DKcYRdhHJ4GW/Kt3TtQh1LTre9iDok6Bwkgwy57Eeo6Vy0nhl47tZ7YaaYLe4aa2zK8QjywbaVX5Tg10WkaVFYaTa2sghmeNAGkCDDHqSPat6ip8q5dyVe+po7h6j86Nw9RUf2aD/nhH/wB8CmmztWOTbQn6oKwKJ6p312bXy8fxnA4zk1KbK1PW2hP/AAAVn3mkfuYIrBI4EiLfIFwCDyR7ZPek720HGzeo6HVGn3BANyEBgVPBxn+tSLfSMoZShVhkEDgiqFvok4WYXISQSqECA4CIAPlz35zzUf8AwjESx2EaK6JZMGjAcc9OufoORjv61SS6k6l86phQxkj2mTywf9rOMfXPFS/bJvRfyrNj8NiKaaVC4aa4W4YFhjcrFsdPUnk89PSoX8JxPZ3NqWm2XE5nY+YCdxz6jkc9/b0FO0e4ry7G/bTvK7BsYAzwKs1l6fpQtNRnvC0m6VQu0vlR06fkK1KTKCq2n/8AIPt/9wVZqtp//IPg/wBwUgEn/wCP60/4H/KrVVZ/+P61/wCB/wAqtUAFFFFABRRRQAUUUUAFFFFABRRRQAUUUUAFMm/1En+6f5U+mTf6iT/dP8qAG2//AB6xf7g/lUtRW/8Ax7Rf7g/lUtABRRRQBXtRm1x/tN/6EaSJ5o4Y0Nu2VUA4Zf8AGq7tfrZobCO2kfe24TuyjGT0IB71TutS1i0a3WW309Wmk2KBLK2fxEfHOOvHvQBr+bL/AM+z/wDfS/40ebL/AM+z/wDfS/41Sjl1zzIvNtbAIWAkK3Dkhe5HydfatOgCmJZftr/6O/8Aq1/iX1PvU3my/wDPs/8A30v+NIv/AB/yf9cl/m1T0AZ8Rnkj3slxkk9JFx1qTbL/AHLn/v4tTWv/AB7L9T/M1NQBStXlWEj7PIfnfksufvH3qfzZf+fZ/wDvpf8AGooLeKRHZkyTI+eT/eNOMMcU8JRcEsQeT/dNADbmaUWsx+zPwjfxL6fWnRSy+Sn+jP8AdH8S/wCNPvDiyuD6Rsf0qRP9Wv0FAFW3llzN/oz/AOsP8S+3vU3my/8APs//AH0v+NJb9Zv+uh/pU9AFdfMe4WRoiiqhHJBzkj0+lc1aeMLvULW7uLPSRIlswUp5x3tk8YAWusPIIrzHT/EOqWNk1tD4a1aORTt8xdP6leA3B+YZycnrmt6Kg0+bfTdmNVzTXLseh6Vf/wBp6ZDeeU0JkBzGxyVIJBH5in6f/wAeMf4/zNUPC7ySeHrdpYJoJCXLRzIUZSXY8j8a0bPAtVA9T/M1lO3M7bGkL8qvuT0hIVSScADJpaKkoyIfEekXdklyl2rW8u5VbacNjGe3uKkXXNKUIi3Sjj5V2t0/Kr8UENupWGJI1J3EIoAJ9akoWgle2oyGVJ4UljOUcZU4I/nVHXL+10rSnvr2XyraCSNpH2k7RvHOBzWjVe8AMKgjI82P/wBDFAzzvWb/AMK6vqkl8fEc0RMYOEt2KjaD0O3r8pOP8RTtJuvDWiayly+vXLTBTiOW2ZQ4bvnHI5zXYavol5qFxFLZazcaeEUo0cSKyvwRnB4yMj8hU+kaZdWEEyX2pSaizy71eWJV8teMKAOwx+tbfWKnLyX0OX6lQ9p7Tl1vf5mnVa+vY9PtGuJVkZAyriNNxyzBRx9TT57SC5kieVNzRElDkjBIwf0o+ywjon/jxrE6gtbgXVtHOsckYcZCyLhh9RTp3aOIsoBbIAz05OKb9kg/ufqaBaQAg+WODkZJoAztT0X+1vLNxIyNGCEaCWSIjOM8qw9MfQn1qnJ4TieXzBc3MbFixEd1KASepxu69vpXR0UAZOnaVPpkTxw3byq5yftMkkpHGOCzcVesd32Rd+N2W3Y6Z3HNWKgh+SaWI+u9foev65/OgDFfQrlr8sJE8lpfM37jvAznH9PoSK1Dpyks3nSZZievAHPH05q7RWsqs5GEMPTjey3KJ0xGxummYg/KWbJX2FJHpaRurefKcNuKk8H8PSr9FT7SXcv2MN7BUEP+vufTeP8A0EVMzBVLMcADJNRWwPlb2GGkYuQe2en6YqDQmooooAKKKKACiiigAorHbxDCdYl063tLm4eAhZ5IwoSNiMheSCxxyQoOBWo08K790qLsG58sBtHqfSqlFx3JjOMr2JKKYssbOUV1LAAkA84PQ1Eb2EEjE3H/AExf/CpKLFFV/tkPpL/35f8AwpftcX/TT/v03+FAE9FY+p6jqCCJtJgt58bjKlyXjJ44CnacHPr6VQfV/EXmjy9O08xlUJ3XLAqf4x93n24FAHSSq7QusbbXKkK3oexrzSLw9P5LhPEmlFJVBciX7wzkH8xXW2OratNdqt/ZWMFqVO9o7ouyntxtGQf0rM1LQhc6lD/ZKaL5EjBWjm05JDDgMS4OR1IUY/GtaVedK/L1ObEYSliGnUW36mv4TtWstJeBr+3vAspIaBsqoIBx/X8a3aq2FjBp9qIYIIIcndJ5EQjVnPVsD1q1UTk5ScmbU6cacFCOyCoJbO2m/wBZbxP7lRmp6KksrixtAABbRADphBUsUUcKBIkVFHRVGAKfRQAUUUUAFFFFAGUvhvSFmMosU3Fdp5OMZB6Zx1ANW7DTrTS7f7PZwiKIsW2gk8n61aooAKKKKACiiigAooooAKKKKACiiigAqtYf8g+D/cFWar2H/HhB/uCgBJ/+P61/4H/KrNVp/wDj+tf+B/yqzQAUUUUAFFFFABRRRQAUUUUAFFFFABRRRQAUyb/USf7p/lT6ZN/qJP8AdP8AKgBLf/j2i/3B/KpKjt/+PaL/AHB/KpKACiiigCukdxGu1XiK5JGVOeTn1p2Lr+9D/wB8n/GpqKAIcXX96H/vk/40Yuv70P8A3yf8amrM17WY9B0p7+WJpUQ4KqQD+tCV3YTdldky/aft8nzQ/wCqX+E+re9T4uv70P8A3yf8a5Hwp4obxJqz3kUDpBLEVXc33AjcDhipJ3HpzXWX1w9rYXE6KHeOMsqk4yQOlXKm01HuZRrRlFy7EdsLr7OvMI5P8J9frU2Lr+9D/wB8n/Gsbwley3emyJJbeQIpCFGCCc8ng89TVvX9Qn03SmuLaPzJdwUDGevcDvTdKSqez6krEwdH2+trX8ya0Fz5LfND/rZP4T/fPvT5Rc+bB80P3z/Cf7p96r+H5fP0aGY26QNIXd0QYG4sSTjsSefxrL8RarcWWrWEcNmk+0+YHK5Kk5U8/wAPBPJ9acaUpT5FuKpioQpKs72dvxNq8+1CyuDmE4jbjafT61Ni5x96H/vk/wCNVdekEWhXjGBJwYypifkODwRjv9Ki8O6jcanpYnuovLkDlMbduQO+O1T7N8nP0LdeKqqj1tcs24uczfND/rD/AAn296nxdf3of++T/jSW/Wb/AK6H+lT1BsQ4uv70P/fJ/wAa43WtP1q61sP/AGXbyLI4iilW9mi+VVLZbYeBwR0Pb1ruKr3JYSW5RQzeYcAnH8JoAZbm/e2iadYI5igLouSFbHIzmo7H7SbRfmh+838J/vH3qzvuP+eCf9/P/rVWsnuBagCBPvN/y0/2j7UAWcXX96H/AL5P+NMlklhjMkstuiDqzZA/nTvMuf8An3T/AL+//WrB8R3Xm2rwn/VAYdT/AHhyP5Vy4zFRw1Jze/Q0pU/aSUTcjeaaMSRy27o3RlBIP60/F1/eh/75P+NcxDfXFl8PIbq1ZlmG1VKoGPzShTgHgnBOM0yLxTqNnm0u7FJruNthTzVSaTcGdDsAI+6AGIOAd2OBWtGbqU4zfVJinHlm49jqsXX96H/vk/41Xuxe+SvlpHKfNTKjjA3DJ5PYc/hXNN4+SSPdbae0m51EZaTClXDNGx44DKpI/Ad6uXPiK8l8Na3qEVstpJZowi3uHbeEDHcMYGCcdSOPStSDoD9pAJLQ4H+yf8ahWa9dQwhTBGR/nNc5oev6lfT+S/l3O2OTeCVXgTFc7lyrELj7vBOelPh8Pa15EJHiXUOG3nPl/MCchfu9AOKAOh8y+/54p+n+NHmX3/PFP8/jWPPoesTMpGv3sW0ufk2c5ZiAcr0GQPcKM09dF1ZLqOVdbvPLSTeYWKMHGfuk7c4+mKANR57yNGdoVwBk9P8AGl8y+/54p+n+NZlrpWsQ3DPcaxNdQspUwyRxqvTrkLnit+gCkZ70OE8lckEjp2x7+9L5l9/zwT9P8anb/j7j/wBxv5rUtAFPzb7/AJ4J+Y/xqOQ3zMriBdyHjkcjuOtaFFAEcUolB4KsPvKeq1JVKcCYmUEhgfLiZTgk9z9P8DUoW6TADxyj/aG0/px+lAFiiqkc9zMH2xRLtcqSXJ6fhUn2dpP9fJvH9xRtX8u/40AN3rdSmJf9UuGY9n64A9uKs1E0AL71kdCVCnbjGBn296TyG/5+Jf0/woAmpGIVSx6AZqLyG/5+Jf0/wpDbsykG4lwRjt/hQALcMyhhby4IyPu/40vnP/z7y/8Ajv8AjUqqEQKOgGBS0AQLcO1wIjazKpUt5h27RjHHXOTn07Gp6KKAOJ8S6XdHUJn0qzuzd3BjdHVVEUcykATb85UhcqRj5hiodT8Galc63cXlsNN8mabzJVm+ZpR8nALI3lkFf9pTgYVTyO8orSdRyik+hlCkoScl1OG8J+DdR0DUYJ53stqQtHK0ZZ2k4ULjcoK/dGcMQePlHWuwNmpJPnXHP/TU1ZorM1K/2Nf+es//AH9al+yr/wA9Jv8Av6anooAr20oNsm6QE45JPNS+bH/fX86p6naTy6fOunC2ivWX91JNHuUHPcVhS6T4pMriG/0pYxuKGS03EnnaDjHHQH6UAdT5sf8Az0T/AL6FRTX1pbrumuYkB6bnAzWXo2n6rEXGstp9xlRta3h289+D2/E1keLbe2u7yzsrMwJqCkkAqAMMOm7sTitaNP2k+V7HNi67oUnNavou7OxjkSWNZI3V0YZDKcg06ud8HSxDSmtRcCWeJ2MgHQZPb1HvXRVNWHJNxLw9X21KNTuFFFFQbBRRRQAUUUUAFFFFABRRRQAUUUUAFFFFABRRRQAUUUUAFFFFABVex/48IP8AcFWKr2P/AB4w/wC4KAEn/wCP21/4H/KrNVpv+P21/wCBfyqzQAUUUUAFFFFABRRRQAUUUUAFFFFABRRRQAUyb/USf7p/lT6ZN/qJP90/yoASD/j2i/3B/KpKjg/494v9wfyqSgAooooAKKKKACsDxja3V5oLRWdubiXzFPlgA5HPrW/RTTs7iaurHl9ppGo2t1byWGk30MyTqVDqFQDIznnABGef/rV3fiDSJda09bWK7+z/ALwMx2btwGeOo+v4VctNPtbFpWtothlbc/zE5P41NLGJYmjYsFYYJU4P510VMVKclK1mjmjhIKMoS1UtzA0bw7eaZqj3k+qG53x7GTytuemDnJ6YqXXtButXurWeDUTa/Z8lV8vd82evUeladlYRWAkETzN5jbj5srPj6ZPA9hUtzE89u0aTPCzdJExlfz4rP20+fnvqP6pR9n7K3u77syvD2iT6Klwk18bkTOHA2bdp7nqevH5VmX/hC9vL+8uF1golyfmQw5+XIwv3u2BXT20MkEIjknedgSd7gA/oBUF5YS3Uiul/dWwAA2wlcHnOeQfpTVeopOaerFLBUJU1Sa0W2rMi/wDDV3e6PYWP9qFWtfvSGLPmenGeMVNoWg3ek3t1cXGpG6+0D5l8vb82evU1o3dhLc3CSpqF1bqq7THEV2t78gnNS2dtJaw+XLdzXJzkPKFz9PlAFJ15uPLfQawdFVFUS1Xm+1vyFt+s3/XQ/wBKnqC36zf9dD/Sp6yOkK5q58WWH2n9ys00VpI32qRY2xEu1hnpzzx+tdLXnWnappWkG+WWL/SpXYSpIxw5DMQCCPl9O/XNb0aamndXMK1Rxas7Hd6fqFtqllHd2j74XzgkYPHB4qT7NGM4MgBOcCRgP51l+F5Fm0czJGI45Z5XRQMAAucY9q2qzmlGTSNYNuKbK0tlHNE0bSXCg90ndT+YNU7rSLHUHmieZy4OXVHGVz0yO1atVYFUX92wVQx2ZIHJ471z1aFOsrVFdGkZyi7xZBp1qunhdLijzawRBkkd8sSWbIIx2wOff2qe+byIjdRW8cs64Vdx2nBYA/Ng/Wnr/wAhCT/rkv8ANqbf/wDHm3+8v/oQrSMVFKK2Qm23djjHDIz27wxshVTtKggjnt7YqUxoUZCilW6jHBqN/luomx94Mv8AX+hqamIiMcccJCIqhUIAUYwPSlg/494v9wfyp0n+qb6GmQkLDGpOCFAIoAlopu9fUUb19RQA6iiigCJv+PuP/cb+a1LUTf8AH3H/ALjfzWpaACopmJxEhwz9SOw7mpGYIpZjhQMk1CpMcTzyA7mGceg7D/Pc0ACqGnwowkIwB7n/AAH86nqOFDHEA33jyx9z1qSgCC1GBN/11ap6rWecTZ/57N/OrNABRRRQAUVymn6X4ig8S3s13eiaykZzC+1B5akfKMdTj39Kuro2sAAN4hlZeM/6OuSe/Of5Ukpfat8nf9Fr9/qTGale19O6t93l5m9RWGdJ1n+HxA6/Ljm1Q88c/p+tXLOwu7e7aabUpbhCu0RsgA68Hjv2plGhRVX7Pc7pD9tfDMSo8tflHp05pptrzPGoMP8AtktAFyiqUSXQlkja7D7QCCYgOufSp9lx/wA91/79/wD16AJqKh2XH/PZP+/f/wBel23H/PWP/v2f/iqAJaKgLTJJGHaNlZtpwpB6E+vtU9ABRRRQAV5fqF34T1LUZtSXxb5fmvkBIidhAPtkD5TXqFZeraTLfWXk2F4dNnDbhNFErH6EHt0P4Crp1JU3eLMa1CnWXLUV0cfol74Z8PXv2s+InkWRWhHmQMqEhsHnHUFSK72yvbfUbOK7tJRLbyjcjjoRWTpeiahZ37zXuri8tyhC232SONVYtndkc9OP/r1uIixoERQqgYAAwBROcpu8tx0qMKMeSmrIWiiioNQooooAKKKKACiiigAooooAKKKKACiiigAooooAKKKKACiiigAqCy/48of9wVPUFl/x5Q/7ooAbN/x+2v8AwL+VWarzf8flt/wL+VWKACiiigAooooAKKKKACiiigAooooAKKKKACmTf6iT/dP8qfTJv9RJ/un+VACQf8e8f+4P5VJUcH/HvH/uj+VSUAFFFFABRRRQAUUUUAFFFFABRRRQAUUUUAFFFFAEFv1m/wCuh/pU9QW/Wb/rof6VPQBXvreS7spIIbmS2kcDEsf3l57VyVxNq9vcXVmJfEFyowizx28IAbIbcpwM9xg8YJ46V2tFAGVpNtdB2vp7+7lS5jQrbToq+Scc8AdfWtWiigAqvCMXlyfUr/KrFQRf8fNx9V/lQAL/AMf8n/XJf5tTb/8A483+q/8AoQp6/wDH7J/1zX+bUy//AOPN/qv/AKEKAH3HCo/9xwf6H+dTVHOnmQSIOpUgU6N/MiR/7wBoAH+4a4X4neKdR8JeFkvNMjT7RNcLD50iblhBBOcepxgZ9a7p/uGvnf4geMPEd34v1mzsblhpumEK9ttVo2UFQWkUj5xuPPpx0ppXYmz0f4V+LdU8XaDdzapGjTWs/lCeNNolBGeg4yO+PUV3mCDyCK4Lw3Z6X4l0SLXLiGGDSltlFvZ2rtFHAQMzMyoR827I+ij1Nc38K/Ej6x4816K13xaTLAJbe3eRn2BWCqfmJwSGJP8A9ahoEz1+Jr0xgyxQK/cLKSPz2in5uf8AnnF/32f8KmopDIVWUzq8gQBVI+VieuPb2qaimSuUT5Rl2OFHqaAGN+9m2fwIct7nsP6/lQ/7ydI/4V+dv6f4/hT0UQxYJ6csx7+pptuCUMjDDSHd9B2H5UAS0Vly6lcprAtUtXeHbgsEb7xGc56beMfU1Z+1TYH+hy5PuKpwaM1ViyaC2ithIIlKiSRpGyxOWJyTzUtUI765a4EbafMqFsGTcMD3q15smf8Aj3k/Nf8AGk1YtO5LRUPmyf8APtJ+a/40ebJ/z7Sfmv8AjSGTUVD5sn/PtJ+a/wCNHmyf8+0n5r/jQBNRUD3DIAWt5OSAOV7/AI0vmyf8+0n5r/jQBNRUPmyf8+0n5r/jR5sn/PtJ/wB9L/jQAR/8fc3+6v8AWpqppLJ9qm/0eT7q/wAS+/vU3myf8+0n/fS/40ATUVSVnubtkmgkiRB8oZx8/T5uD+HPpToktpmkCIf3bbTyaAJpv9ZB/wBdP/ZTUtZNxLookBnmiDW7bxukI2Hlc9fciq+p3v2WaGKztVuZJk3xpvIL+uD0AA5yaCZSUVdm9RWNaXkeQZGjilSby3CucfdyRz6E4/CtP7Xb/wDPaP8A76FNqw001dE1FQ/a7f8A57R/99Cj7Xb/APPaP/voUhh9sttxX7TDuGcjeMjHWmm+tAwU3UAJOAPMHJqs1ro7yPI1vZM7jDMY1JYe5oS10aJlaO2sUZehWNRj9KANGioftdv/AM9o/wDvoUfa7f8A57R/99CgCaioftdv/wA9o/8AvoUfa7f/AJ7R/wDfQoAmoqH7Xb/89o/++hR9rt/+e0f/AH0KAJqKh+12/wDz2j/76FH2u3/57R/99CgCaioftdv/AM9o/wDvoUfa7f8A57R/99CgCaioftdv/wA9o/8AvoUfa7f/AJ7R/wDfQoAmoqH7Xb/89o/++hR9rt/+e0f/AH0KAJqKh+12/wDz2j/76FH2u3/57R/99CgCaioftdv/AM9o/wDvoUfa7f8A57R/99CgCaioftdv/wA9o/8AvoUfa7f/AJ7R/wDfQoAmqCz/AOPOL/dFL9rt/wDntH/30KSz/wCPOL/dFACTf8flt9W/lViq83/H3bfVv5VYoAKKKKACiiigAooooAKKKKACiiigAooooAKRl3IynuMUtFAFdYp0RVE64Ax/q/8A69O2XH/PdP8Av3/9epqKAIdlx/z3T/v3/wDXo2XH/PdP+/f/ANepqKAON1ESR388dy0M85jQCR12DPByATwCNw4zzVnTm1uPT1ks0jktwCI435J5PIyRxnjk9DwOOeppu9fM2Z+YjOPasPYe85XO365+7UOVO1t9TKsm1vz/APS1hMZJBGANv3iCMHkfdFaP+k/9Mf1qaitYx5Va5y1J87vZL0If9J/6Y/rR/pP/AEx/WpqKogh/0n/pj+tH+k/9Mf1qaigCH/Sf+mP60f6T/wBMf1qaigCH/Sf+mP60f6T/ANMf1qaigCnb/aczf6n/AFh9fapv9J/6Y/rSW/Wb/rof6VPQBD/pP/TH9aP9J/6Y/rU1FAEP+k/9Mf1o/wBJ/wCmP61NUU9zb24QzzxRB2CLvcLuY9AM9T7UAJ/pP/TH9agh+0/abj/U9V9fSql34i0u0MGbyOUTXC2+YXD7GYFgWwflGFPNWZdS0+2DPNfWsXQsXmVe2R1PpQBZjSQStJIUyVCgL7Z/xpl9/wAeb/Vf5iqlnrtjdveKku37JO0EnmcZZVViV9Rh1596uX3/AB6P9V/mKALFQ23EOz+4xX8jx+lTVDH8txMvqQ4/EY/pQBKRkYrw/wD4Vh4pk8fXOrzR2R0+6vJTcKbjJe3kJDAjHXafzxXuNMmWRoJFiYJIVIRiMgHscU07CaueD2Hw7aDVFfSE86SGTzIlTxAg3hTlSwWLOCMZ+tdH8N/AfiHw54s1HVdXis0ju4XAFvLuw7SBsAYGB1rtNO8PXtjqaXQubBY1PzLDYqjMuCNu4c+nPtiukouFgooopDCoY/3shmP3eifTufxomO8iEHG4Zc+i/wD16lGMDGMdsUART/OUhH8Z+b/dHX+g/GpqrWrvM80skMkRDmNRIBkqpxuGCeD1HtirNABUFxdR2uXndI4VRneRzgKBjr+dT1jeIr37Dpl3chd5htXcrvK55XjIIIzg0Aa0Usc8SSxOrxuoZHU5DA9CD6U+qumrGul2ixDEYhTYNxbjAxyeT9atUAFFFFABRRRQBDc/dj/66L/Opqhufux/9dF/nU1ABRRRQBDH/wAfc3+6v9amqt5scd3L5kiplVxuOM9ak+1W/wDz3i/77FADZN0dyJNjMpTb8vJBzUcRih3eVayLu64TrSi9jmuGt7aSGWRFDSASfcB6Zxnrz+VSZuf7kX/fZ/woHdjfOX/n3l/74qjf2MGok+at2gKbGVABkZyOoyOfTFaGbn+5F/32f8KguL4WpAuJbaIkZG+Ujj8qavfQiXK17xHbW/lFUjE5zL5jvKAP4dvbHoO1aNVIL0TbWUxPGzbN0b5wcZ9Kt0O99Rq1tAooopDCiswXGs7pAdPtCoHyH7URu57jZxxToptYeeMS2VpHESN5FwzED2G0ZoA0aKKKACiiigAooooAKKKKACiiigAooooAKKKKACiiigAooooAKKKKACiiigCCX/j6t/q38qnqCX/j6t/q38qnoAKKKKACiiigAooooAKKKKACiiigAooooAKKKKACiiigAooooAKhP/H6v/XM/wAxU1QE/wCnKP8Apmf5igCeiiigAooooAKKKKACiiuU1HxjDHeT2ljNbyXFvIY5YWkVZAR7MRke4q4U5TdkZ1asaUeaX4HV0VxcPjN4AZNSMFrCoyTLKmT9ArEk/hXYQTLcW8cyZ2SIHXPoRmnUpSp7kUcRGsrxuvXQa1tCzFipyxycMRmk+yQ/3W/77P8AjU9FZm5D9kh/un/vs/40fZIf7p/76P8AjU1FAEDWUDKVKnBGD85/xrE13w8dUi05LSdLSSwmWSKYoXkQAYIXnHK5U7sgg+oroqTA9KAPLdL+Gk99oulnUrlLKaGzS3NvDbgFVw+Q53YZsvwenB45rUh+G8j363l/qNvPIIfJ2LaYXi3MIPLHnnP6V32B6UtO7FZHC6J8P20Oe4mTUkna4tzbyrPah1xsRVIBPHKEkdGyM/dBrorPTI9I0QWUU00qI2Q0z5PLZwOwHoBwBwK18D0qC8A+yv8AUfzFFx2LFQt8t2h/voV/LBH9amqGfjyn/uyD9eP60gKWq69p+jNGt5KytICVVULHA78Vn/8ACc6H/wA9pv8Av0a5X4mXawa3psT4AeFvmJwB81cmZbbZu+32p4zjfz9MetclSvKMmkfS4PKKNXDwqzvd9vX0PWoPGei3FxHCk8gaRgqloyBk9Oa368Ftr+KLVdPVXSUvcIPkbO35wOa96rSjUc73ODNcBDCOHJfW+/kFNdxGhdugp1Q/66b/AGIz+bf/AFv89K3PJGNbGa2kR2KvL94jt6CqsmjiSOFRdzxtErANGcdfT0/wrTqldWt5M5NvqDW6nHAiDfzpcq5ubqKxQXw4yK4TWNSXcOolGQeeenvW52rPFnfblLakTg5I8kAEZ6VoU7hawVlX8NtO91a6nJbi1uoliRPNKOw53ZOR6jpWrXnniVG1PWLmWxuomjgiAm8w424ODt9f8a3w9JVZWbsjjx2Klh6fNFXb6HoSqERVX7qjApapaXPFc6TA1tP5qiMIHYc5AxyPWpdt5/z1g/79H/4qsZKzszrhJTipLqWKKg23XeSH/v2f8aCt12khH1jP/wAVSKJ6Kr7bz/ntB/36P/xVY2qrMLqEXix3QCTPFFEjKDwgUEZOTknn0PSqhHmdiKk+SPMbdyG8tSqltrqSB1xmk+0f9MZv++a5mNUlZSmhrsLBcsxXB25bOfTkZrc0VSmnxqd2Azhc56b2x+mKudPlV/6/MzpVueVrfn/ki19o/wCmM3/fNH2j/pjN/wB81PRWRuQfaP8ApjN/3zR9o/6Yzf8AfFT0UAUoZxLqUi+TLHsjHzOmA2T2PfHepLSGaJpjK6tvfcMdv88VNJDHLguuSOhBwaZ9li9H/wC+2/xoHcrS2N28rMmqTxqeiqiED8xWdrVhdXEsWy3a7RYgpjYgJKwP8fI+ox3ra+yxej/99t/jR9li9H/77b/GjRqzV0ROKkrMzLW3uFGXaWEPcgohCcDYB78cEDnoK0/Kk/5+ZPyX/ClS3iRwwU7h0JYnH51LTbuNKysQ+VJ/z8yfkv8AhR5Un/PzJ+S/4VNRSGQ+VJ/z8yfkv+FHlSf8/Mn5L/hU1FAEPlSf8/Mn5L/hR5Un/PzJ+S/4VNRQBD5Un/PzJ+S/4UeVJ/z8yfkv+FTUUAQ+VJ/z8yfkv+FHlSf8/Mn5L/hU1FAEPlSf8/Mn5L/hR5Un/PzJ+S/4VNRQBD5Un/PzJ+S/4UeVJ/z8yfkv+FTUUAQ+VJ/z8yfkv+FHlSf8/Mn5L/hU1FAEPlSf8/Mn5L/hR5Un/PzJ+S/4VNRQBD5Un/PzJ+S/4UeVJ/z8yfkv+FTUUAQ+VJ/z8yfkv+FHlSf8/Mn5L/hU1FAEPlSf8/Mn5L/hR5Un/PzJ+S/4VNRQBD5Un/PzJ+S/4UeVJ/z8yfkv+FTUUAQiA+YrtK77c4BA/oKmoooAKKKKACiiigAooooAKKKKACiiigAooooAKKKKACiiuE8bePLvwtq8FnBYwzrJAJSzuQQdxGOPpW1ChOvPkprUzq1oUo889ju6K8f/AOFxaj/0CbX/AL+NR/wuLUf+gTa/9/Grt/sfF/y/ijk/tLDfzfgz2Cqzf8hKP/ri381rzeP4pX7xq39mWw3AH/WNTD8SL03a3P8AZ8W9YzGF85tpBIOcY68dfrXgTx1CEnGT1XkfSQyXGTipxjo9d0eqVFLIyNGqKGZzjk4A4zXmknxS1BI2b+zLY4Gf9Y1UG+LeoMyMdJtcqcj963p9K2o14Vk3BmiyDHPaK+9HrO65/wCecX/fw/4Ubrn/AJ5xf9/D/hXlH/C39R/6BNr/AN/W/wAK3/B/j+88S64bCexggQQtJvRyTwRxz9a2IrZJjaNN1Jx0XmjuN1z/AM8ov+/h/wDiaN1z/wA8of8Av4f/AImpqKDySHddf88of+/h/wDia8M1LRYdV8S67Nfn7PcJqCpJIJP3MSEqCQxX5m5+6dvtnBr3mvGfGHw38QXfia91KwihuoLmTzQqyBWX2IbH6Gu7AyUZu8uU4sdGUoK0eYx77wzFFpdxNBb3MV0kIk+ySOHdF8wruOAMgqMj8eoxXtulm4/smzwsWPITHzH+6PavG7b4deK78Rw3FuII0GxXnnUhF9gCTj2r2+0h+zWcEBbd5UapnHXAxW+ZVIuMYqaluc+XQkpSk4OOwZuf7kP/AH0f8KM3P9yH/vo/4VNRXlHqkObn+5D/AN9H/CjNz/ch/wC+j/hU1FAEObn+5D/30f8ACjNz/ch/76P+FTUUAVopLmWJXCRDcM43n/Cn5uf7kP8A30f8KLT/AI9Iv90VNQBDm5/uQ/8AfR/wpkiXEqbCIgCRkhie/wBKs0UAFRXC7raQDrtyPr2qWigDzT4l+GtY1680670q0+0xpCyOFdVIJII6kcVwn/CBeLNwX+xpMkZH72P/AOKr6Atf+PdVPVMp+RxQ/wDx9Q/7rf0rmnhYTlzNnuYXPsRhqMaMYppd7/5nhmk+AvFK6zYvLpbRRpcI7u8qYVQwJPBz2r3mijoMmtKVGNNOxx5hmVXHSi6iSt2I5nKqFT77HC/4/hTkQRoEHQeveo4f3jGY9xhB6L/9f/Cpq1PPCiiigCOFzJHuOM5I49iRUlQ23+p/4G3/AKEamoARhlSM4yOvpXBT+AZUaHydVldZZNsh2AYXBOevPIHFdzcQR3VtLbzLuilQo65xlSMEVijwXoItpLdLNkjeVZcLM4KsucFTn5cZPTFaU606fwuxhWw1Kvb2ivYseH9D/sG1lg+1vcCSTfllC7eAP6Vr1m6VodjookFmJh5uN5lneTOM4+8T61pVMpOT5pbmlOnGnFQgrJBRRRUlhWbqCTrqFpcxW7zLGkiMEZQRu246kehrSqtfwXNxaNHaXf2WYkYl8sPj8DTi7O5Mo8ysYl3fpdXsFpJbOzRvuktmdCX+XI43ckZBwf8ACr2kExz3UDW0lspbzIomHAQgA4I4HOTt7ZrlFk1cagJBJrDgPsM7aRFnqFJzkNjHcD7p9RXb6db3NrZJDd3Zu5lJzMUClueOBx0q+f3eWxCpWlzXLVFFFZmoUUUUAFFFFABRRRQAUUUUAFFFFABRRRQAUUUUAFFFFABRRRQAUUUUAFFFFABRRRQAUUUUAFFFFABRRRQAUUUUAFFFFABRRRQAUUUUAFFFFABRRRQAUUUUAFFFFABRRRQAUUUUAHSvF/i8QfE9mQQR9jHT/favYbzm0lB9K8d+LqqniazVVCj7GOAMfxtXq5N/vS9Gefmn+7v5HG6cmnP5n26V17KF/n/n9apsFEjBG3KCQrYxkVattUu7SERQsgQNvAaJWwfXkVXmme4maWTbubrtUKPyFfWRUuZt7f15HzcnHlSW5sQf8e8f+6P5VoKLT7DkmLz/ACzgbz/e/wDQvQdMc9ap2VxJbxxvEwDGMDlQePxq2NTuhxui/wC/Kf4V+L4hxVepfu/zP3vDKbw9O3ZdfL0KM3/HvJ/umspcbl3fdyM/Stm9uJLiN3kKlghHyqF/lWTb3ElrMs0LBZFzg4B6jHevSyv4JW7noU+blfcu6mNPCR/YzHu3HOx93FdJ8LCB4xYk4H2STr9VrlZtTubiFopGiKHGcRKDx05ArqvhYFbxgwYAg2knB+q16hw5hGUcBVUuz8z2vzI/76/nR5kf99fzpv2eH/njH/3yKPs8P/PGP/vkUz82HeZH/fX86PMj/vr+dN+zw/8APGP/AL5FH2eH/njH/wB8igB3mR/31/OjzI/76/nTfs8P/PGP/vkUfZ4f+eMf/fIoAd5kf99fzo8yP++v5037PD/zxj/75FH2eH/njH/3yKAHeYn99fzo8xP76/nUNxBD9ml/dR/cP8I9KckEOxf3MfT+6KAJPMj/AL6/nR5kf99fzpv2eH/njH/3yKPs8P8Azxj/AO+RQBFaSJ9kh+dfuDvU/mR/31/Oq9pBCbSE+VH9wfwipvs8P/PGP/vkUAO8yP8Avr+dKCCMg5FM+zw/88Y/++RTLUBY3CgACRsAfWgCeiiigCGH5Zpk/wBoMPxH+INEn/HzB/wL+VB+W8H+2n8j/wDXol/18H+8f5GgCaoZf3riEdOr/T0/H/GpJHEaFiM46Adz6U2JCiZbl2OWPvQBJRRRQAUUUUARW/8Aqj/vv/6EalqG3/1bf9dH/wDQjU1ABRRRQAUUUUAFFFFABRRRQAUUUUAFFFFABRRRQAUUUUAFFFFABRRRQAUUUUAFFFFABRRRQAUUUUAFFFFABRRRQAUUUUAFFFFABRRRQAUUUUAFFFFABRRRQAUUUUAFFFFABRRRQAUUUUAFFFFABRRRQAUUUUAFFFFABRRRQBDd/wDHpJ9KqXun/abtJTDDIFXbiT8fb+tW7v8A49JPpU1NOwWuZH9ljJ/4l9h7fKf8KsppViUBextw3cBARV6ii7FZGWNGgWRmWKAqc4Vo+BTDZWwu1tvstvvZDID5B27QQOvTPPSteq7f8hGP/rk381qbIvmZDLpNk0ThLSEMRwdo61WGlAYH2CxI6ZI5/lWvRTFzMzotMsSWR7W1Z1PIWPpVmGwtLeTzIbaKN8Y3KoBxREMXdwfXb/KrFAXYUUVUu9StLGSOO4mVGkBKhiBkAgd/dgPxFAi3RVL+1bTOPNTPp5i+3v7j8xQNVtD92RWwN2FZScYznAPpzQBdorKTxFpUkQkS8hKFDID5i/dHfr05H51Jd63Y6eiteSiBWBKmQgZAxkjntkfnQBo0UgOQCO9LQBFcf8e0v+4f5U9P9Wv0FMuP+PaX/cP8qen+rX6CgB1FFFAEFn/x5w/7gqeoLP8A48of9wVPQAVBbfdk/wCujfzqeoLX7sn/AF1b+dAE9FFFAFW7kML2ziGWXMwQ+WudoIIyfYdzTrgTm4tTEkbRiQ+aWcgqu08gY5OcDHHWm3sNxMI/Il8vB55xVO6s9XkllNtqKRK5GN0e7aMdB/nv7Uk220K5cgnS8mkZA+yCQx/MhXLjqRnqPQjjrVqsmztdaiuIjc6lDNCrHeggwWGDjBzxzj8q1qYwooooAKKKKAIbf7j/APXR/wCZqaqD2gvIWXz5oSsrkNC+09TUZ0clFUajfrgEbhKNx5z1xQBp0VXs7X7JCY/PmmG7IaZtxHtmrFABRRRQAUUUUAFUJ9WtbedoHLeYOwHXABP5Aj+mav1ytzoTyXzSwujRhhjJQk4xj64Oc559O9a0owb952Ma0pxS5Fc6quOvrq5gu7h0laRhMyiJt2AM8HriutgiWCBIkJKqMAk5NVpdNsprppZFbznHOJWGRjHQHFFOag9rhVpuolrYdprM2m27OxZinJPerdRfZYMD9zGcDGSoJo+y2/8Azwi/74FZt3dzWKsrEtFRfZbf/nhF/wB8Cj7Lb/8APCL/AL4FIZLRUX2W3/54Rf8AfAo+y2//ADwi/wC+BQBLRUX2W3/54Rf98Cj7Lb/88Iv++BQBLRUX2W3/AOeEX/fAqMwxx3cJjjVchs7Vx6UAWaKKKACiiigAooooAKKKKACiiigAooooAKKKKACiiigAooooAKKKKACiiigAooooAKKKKACiiigAooooAKKKKACiiigAooooAKKKKACiiigAooooAhu/+PST6VNUVwjSW7qoyxHAot5JZYt0sBhbcw2Fg3AOAePUc/jQBxnibXpbvxJa+HLFjtVg9+yuFJQ/wDkE8cnHOCPeoF1iz8OapaeYwhjZ/IuFiK7SDwrso6YOD64J61w/j2DVtD+IDXdsJN11IJrR1TdvJAUr7+mPQj1rOvLLxDql/a2l5Fei6KGaeOa3EYjj6byeN3Q89eKxlGp8XqdcVQ5lC/a/z3t6edj6IqBv+P8Aj/65N/NakQbYlAO7CgA+tRqJHuVkaMoqoRywOckf4VschPWHceKtPtriSCQS7kYqflHb8a3K85dBJ4wKMkUgM7fLKcKevWtaNNTbT7HPiKsqcU49XY3ovF9iLu4ZwfKbb5e373A5z/8AWrT03xBZ6pdNb24k3hN+WAxj8/es/wAqeMap5dnZIAnOxyNo2dvl/wAKw/BbhNWckMR5J6KT3HpVypR5HJdLGcK83UjCXW/foeg1j6voVjrl1Cl9GzrFG20K2OpGc+o4HX0FaJukGPkmOfSJv8Kjt5xczJMqSIGjPyyoUYYbHIPNc52HI6j4D0q1jiXT9HFxubdIrXBQYXBH1OQMdf1NVLLQYtLvkns/Cl1BJFuKSxXQyGIC8cdNuR+HTkGuw1XQ7fV3ieWa4heJWVWgfacHGecZ7VirotrPez2vm6vHHEm3zftBO4kgccE5zk59z2NAFCXwZpslily2hSG5Mi7ojcHGN2OvHRQG5GMn61uaj4R0rUFMl2ssrojhWL4OGxuGR64GfXFSLY2ev6ZtlFwEjd41ZnBJwNhOeeD1+tbDrstWQEkKmMk5J4oAdD/qY/8AdFUtY1zTPD9kLzVr2K0ti4jEkpwNxzgfoauw/wCoj/3R/KvMvjz/AMk+h/7CEX/oL0Abt18UPBQtJtniGzkby2wiscscdB709Pih4J8pS3iOyX5RkFjx+lfN+j6batolxqt3bmby7lIIgZcR5KktvA+bAwMdMkgVkarBHA48lSsckIkUZJ4I6jPNZRrRlNwXQ1dJqHOfakM0dxBHPC4eKRQ6MOjAjINR3N5a2aq11cwwKxwplkCgn8ax7e+bTPAVvfKgka305JApOASIxXmvi7UNS8V6Xaz3VlbQJbIbgJHNuk8tsDeUPO3pz7+lehhcK671dlscGJxUaKta7PUNO8QaPJp1u41O0UNGDh5lVhx3BORWtFLHPEssMiSRsMq6MCCPYivnnSLHRLp41uUUkodw3MORXtWgmDTPBML2aAwwW7vGuTzjJ61ri8EqEU073ObB5h9YqODjayN+qGnXtvctcxRyDzIpnDIT8w+brj0968/j+ImuXWkzXyWGlrAgw5a72spOcfKTnJwceuKoeDLmBW/tO51S2tXCSIqDczbiMAsMfj19KUcDLlk5vVdtfyPQ51fQ9eorivh5dXM1rfR3euxapIsgYbHZ/LBz3YDqR07Yrta5KtN05uD6FJ3VwrKn0zYDL/aN+oAxtSUY5/CtWobv/j1k+lZjIoLEQTmX7RO+c/K75H5VboooAKKKKACiiigCG26Sf9dG/nU1QW//AC1/66NU9ABRRRQAUUUUAFFFFABWLL4eieZnWSNQWLYNtGep9cVtUUAMiQRRJGMYVQowMdPasbU7SWO7FzbSW5naRWRJcBzgY2g5HHt9a3KjeCGSRZHiRnT7rMoJH0NVGTi7oicFNWY9d20bgA2OQPWlooqSwooooAKKKKACiiigA6VlyXumy3cFyZnLwhghUvt+bGeBw3Tv+FXrpWe1mRGKuyMFI7HFZKanCtsEXVbONjCixiQjKuOpIzz24q4xuZznys14LmG5j3wuHUHBI7GpaoWDrNPeTxSiSF5QEI6cKAcHvzV7cv8AeH51LVmVF3VxaKTcv94fnRuX+8PzpFC0Um5f7w/Ojcv94fnQAtFJuX+8Pzo3L/eH50ALRSbl/vD86Ny/3h+dAAWUHGaTevrUbSLhkWRBI2QmT1OKyNKv55RJO9jdwhphEy3C4fj+MD+70p2Fc296jqaN6+v6UN/D9a898ZWNvea1M2taw1jaRxKLNGLBGJB3MMfecHt14FaUqaqSs3b8TOrUdON0r/geheYg6mnVieFzP/wjVv573L4UiN7oYldMnazDtkc884xnmtpfuj6VE48smi4S5kmLRRRUlBRRRQAUUUUAFFFFABRRRQAUUUUAFFFFABRRRQAUUUUAFFFFABRRRQAUUUUAFFFFABVPVdTt9G0yfULvf9ngG59i7jjOOn41cqlqWk2OrwxxX8AmjjfeqliBnpzg8jnoeKAMXXH8Ka4IoNQvbFri3mxAxmAeGXIHGD1zjjpWdaalouo6hDrGqNaFprUxIXjCiMI4zu3HIO5hgD8eordbwjoToENguwO7qokYBS7Bmxg8ZYA4qOPwX4fiUrHp4VSzPtEr43MVLHr1JRcn2FAGnZ6rp+oPss72CdggciJw2FPQ8VcrL0/w7pOlXX2mys1im8sxbwxJ2FtxHJ6Z5rUoAK43XNB06C4a6vNRkhE7sQBCX98cV2VFVGTi7pkyhGatJXPH9OuC+p+RObq0tGLA3AjfpzjIA7/1rvvDuhW1k4v7a8eeOWPC5TbwSOfXtXRUU3Um1ZsmNGnF3jFIKg/5fh/1z/rU9V5GEd2rMG2mMjIUnv7VBoc9qNvfWs7vLrjwo7SSKArttTcDggcAAELntnI5qoL1PNcnxZb7N2RHvOBxjG7OeDzjuRz1rotTEVzaNttknmXmMTQFgPXqOuK5tIdUjBgOg6M0bucL5RTC+pGCCeef69aAL8ck2jyxnUNeZ1kyqR+UXXIAz83JzwTgnufSt1IZIYbrzJ2lDuzpu/gUj7v0FU5oop72FpbK3eEK4ctAWbqpXGR7EkfTmrstxGYnAEhJUgfu2/woAmh/1Ef+6P5V5v8AHBIpPBFok0nlxNqUIZ/QbXr0iIEQoCMEKM1n674e0rxLYLY6xaLdWyyCURlmX5hnBypB7mgD5XsEtNPmuHt9dihjkj2yoEVyVznbk8NyOoFVNQsrW5M88uuwSTGMuRsAHQ4UfNjtjA6ZHXnH0j/wqTwL/wBACP8A7/y//FUh+EfgQgg+H48H/pvL/wDFVPLFPmtqVzy5eW+hp/Y5tQ+HMdnbqDNNpiIgY4BJjGOa8u1xNa0WJbS90mNb2ezFt9pikLkwggYwDgNgAZ9BXsxutN0qKKza4gt1ijVY43kAIXouM8noR+FZmqL4b1YCS6uLWSVQY0fzclDx2B9SOD6134TF+x0krr8fzODF4V1VeD978DwmztL60KTMVRSDztyRnsR2r2HwXFJc/D65ijy8spnVdzdScgfSpLbSvCMVrDHdy2L3Cxr5r+eVDN0JxnjJ5rodIi0q0gez0owiKNizJG+7BPWujF4+FamoxTun1OXBYCrQquc2rW6f8MeH3ugeI9E8O3cd5pDpbzyws0okVihXcAMKT13daj0RJBpu143Ds7YUjk/hX0DPBFcwPBPGskTjDKwyCKyrHwrpGn3YuoLcmVTlC7lgn0zVU8zVm5rXyPSdPscf8J7C7t49SuZ7aWKKXy1RpFK7iN2cZ+or0miivOxFZ1qjqNWuaRXKrBUN3/x6S/7pqaq2ozJbabczybtkcTM21SxwB2A5P4ViMs0UisGUMOhGRS0AFFFFABRRRQBBb9Zv+uh/pU9Z2nahBdz3kSHDxTEYLA7hgfMME8dvwrRptNbkxlGSvF3CiiikUFFFFABRRRQAUU3evrS7l9aAFopu9fWjevrQA6im719adQAUUUUAFFFFABRRRQAwyRh1jZ1DsMhSeTXn+veG9TvtZkuFkjlWRv3bNKFzz91QT2H6iuz1DR7XU2VrjzMqpUbH29ay5PC+hRTwQyPIssmVgRpyCSPmO0d+5NbUa0qUuaJhXw8a8eWRr6YklvptvFcXAllRdjPnqc4x9e1Wfs8BOTDH/wB8ismLwtpkM8cyrNvjcOuZCQCDkHH1/wA8Ctqsm7u5tFWVkRfZoP8AnjH/AN8Cj7NB/wA8Y/8AvgVLRSGRfZoP+eMf/fAo+zQf88Y/++BUtFAEX2aD/njH/wB8Cj7NB/zxj/74FS0UARfZoP8AnjH/AN8Cj7NB/wA8Y/8AvgVLRQBWFnatMsrW0JkiYmN9gyhIxkHscEio5rEy3PmiRFU4yvlAk496uAYz7nNLQIa3VfrWVql1cxTqsasF425iVgT68sDxWsRnHsaZLBDOFE0SSbTkb1BwaBlTTZria2kNyWZgeG8sKCPbDHNXl+6PpTUijiiEcaKiAYCqMAfhTxwMUAFFFFABRRRQAUUUUAFFFFABRRRQAUUUUAFFFFABRRRQAUUUUAFFFFABRRRQAUUUUAFFFFABRRRQAUUUUAFFFFABRRRQAUUVA8kpmdI/LCqoJLZ75/woAnoqjb3huy4gmgcpjdgNxmke9eG1S4nkhjRsc4Y4JoAv1C//AB9w/wC639Kga6l+zpOrwNE2CGweh71Q/tWGa9hePU7QBEbMW0nfnGDntjB/OgDcorMGqL5YlM9uIWxtchgCef8ACkj1eCWRI47y0Z3OFAzyaANSiqD3rw20c88kESucAkHrT4rp5Yop0eGSGRgAyZ5yccUAXKKKKAKN5o2nahcx3N1aJLNEMI5zlec8fjzUUfh7SYpWlSxiEjDDNzlvm3c+vPPNadFAGWfDmkMctYRM2QSzZJOBgZJPIwBwfQVPY6TYaZn7HbLDlQuFJwBnOB6ckn8au0UAFFFFABRRRQAVy/jIyzw2tpayq1y0m4W+7BcY6+n51uzapYW8jRzXcMbjqrNg1xutaZ9u1iXVItftYEDALuU/uyoHBOfX+ddGGcY1OaTtY4swhUnQcIRvff0N3wgzrpDQTTI88cjb4w2fK9B+h6cV0FcL4fs4NE1E3lxr9nJFLGybRxvORzknsa6+LVLCeURRXkDyNwFVwSanEOLqNxd7lYGNSNCMKkbNaFuiiisTrCqmpXUFnp801zIY49u0leuTxx71GNa01mKi9iLgZKbvmH4day9f/snXLJLWTWIrcJIHysi8nBGOfrV0+XmXNsZVuf2b9mrvoc54fRdN1izury9j8mZWEOzqc/L8/p+vNejV563hHScoh8RvlhlF+TOCSOB9c12MWsaWkEY/tGAgKPmaQAn610YupCo1KLuzhyyhVoQcJxst1+po0VSbVtOUKWvYArDKkuMH8atRSxzxLLE6vGwyGU5BrkPTH0UUUAFFFFAGFqcAFxE4vL2N5V+5FNsQBccn5T6in6ZaqC16t5fyFNytDLKChI9sD86ZqzEzW+IZ2aNCAViyp3Y74PIx6U2IKNFurd4bwLITuMcRUgMD06Zxj9at8vLpuZXnzvsX7bVBcXEcXlj5wfmVs7SOxyB78+1S3N55E6QhMsylsnOBj6Ams2xnaCGBHhuCsGBj7Od7cEA9enNSai9hczgtewLIgKFHbkZ56fh6VKsWr2NC3uftUO/aVIk2kZ9DVmsjT5rCNVghvreRpCCI0Yde+BnvWl9mt/8AnhF/3wKRRLRUX2a3/wCeEX/fAo+zW/8Azwi/74FAEtFRfZrf/nhF/wB8Cj7Nb/8APCL/AL4FAEtFRfZrf/nhF/3wKPs1v/zwi/74FAEtQTAG5tyQMgtjjpxTvstv/wA8Iv8AvgUqQQxtuSJFb1CgGgCSiiigAooooAKKKKACiiigAooooAKKKKACiiigAooooAKKKKACiiigAooooAKKKKACiiigAooooAKKKKACiiigAooooAKKKKACiiigAooooAKKKKACiiigAooooAKKKKACiiigAqtsZruYrI64ReFA56+oqzUY/wCPh/8AdX+ZoArWzTT7t32mHbjG8Jz+Qpi+bDYROrXEp2j5YwmenuK0Kitv+PaL/cFAFV1lkt4XZ5o2ZlJjYJlfbgYqA3t0qFvseoHBxgCKtGfon++v86loAyzNMp84R3jl1XMYWPen3uvb9aWO8ndlU22oruI5ZI8L9eavj/j5f/cX+bVJQBnL5sGnxupuJiABsjCZ69eRUjCRoYZGeUZdCUcLxyODgVYtv+PaP/dpZei/7w/nQBJRRRQAUUUUAFFFFABRRRQAUUUUAMaGJ2y0SMfUqKQwQsMGJDznlR1qSigCL7Lb/wDPCL/vgULa26MGWCJWDFgQgBBPf61LRQAUUUUARfZ4AciGP0+6KBbW4ziCIZOT8g5PrUtFAEfkRZz5SZ9dopPs8H/PGP8A75FS0UAR+RDgDyo+OnyinhQowoAHoBS0UAFFFFABRRRQBBPaQXMXlzxLLGDkK4yKUWsK2/kLGBDt2+Xj5cemKmooAqxadaQSCSK3RHA2hlGCB6fSp/KQnJUZ9cU+igCPyI9wbYu4dDgZqSiigAooooAKKKKACiiigAooooAKKKKACiiigAooooAKKKKACiiigAooooAKKKKACiiigAooooAKKKKACiiigAooooAKKKKACiiigAooooAKKKKACiiigAooooAKKKKACiiigD//2Q==;" vertex="1" parent="1">
          <mxGeometry width="800" height="473" as="geometry" />
        </mxCell>
      </root>
    </mxGraphModel>
  </diagram>
</mxfile>
